<?xml version="1.0" encoding="UTF-8"?>
<!DOCTYPE svg PUBLIC "-//W3C//DTD SVG 1.1//EN" "http://www.w3.org/Graphics/SVG/1.1/DTD/svg11.dtd">
<svg xmlns="http://www.w3.org/2000/svg" version="1.1" width="512px" height="512px" style="shape-rendering:geometricPrecision; text-rendering:geometricPrecision; image-rendering:optimizeQuality; fill-rule:evenodd; clip-rule:evenodd" xmlns:xlink="http://www.w3.org/1999/xlink">
<g><path style="opacity:0.021" fill="#43443f" d="M -0.5,-0.5 C 0.166667,-0.5 0.833333,-0.5 1.5,-0.5C 1.16667,0.5 0.5,1.16667 -0.5,1.5C -0.5,0.833333 -0.5,0.166667 -0.5,-0.5 Z"/></g>
<g><path style="opacity:0.022" fill="#43443f" d="M 16.5,-0.5 C 18.1667,-0.5 19.8333,-0.5 21.5,-0.5C 14.5,7.16667 7.16667,14.5 -0.5,21.5C -0.5,19.8333 -0.5,18.1667 -0.5,16.5C 5.5,11.1667 11.1667,5.5 16.5,-0.5 Z"/></g>
<g><path style="opacity:0.022" fill="#43443f" d="M 36.5,-0.5 C 38.1667,-0.5 39.8333,-0.5 41.5,-0.5C 27.8333,13.8333 13.8333,27.8333 -0.5,41.5C -0.5,39.8333 -0.5,38.1667 -0.5,36.5C 12.1667,24.5 24.5,12.1667 36.5,-0.5 Z"/></g>
<g><path style="opacity:0.022" fill="#43443f" d="M 56.5,-0.5 C 58.1667,-0.5 59.8333,-0.5 61.5,-0.5C 41.1667,20.5 20.5,41.1667 -0.5,61.5C -0.5,59.8333 -0.5,58.1667 -0.5,56.5C 18.8333,37.8333 37.8333,18.8333 56.5,-0.5 Z"/></g>
<g><path style="opacity:0.022" fill="#43443f" d="M 76.5,-0.5 C 78.1667,-0.5 79.8333,-0.5 81.5,-0.5C 54.5,27.1667 27.1667,54.5 -0.5,81.5C -0.5,79.8333 -0.5,78.1667 -0.5,76.5C 25.5,51.1667 51.1667,25.5 76.5,-0.5 Z"/></g>
<g><path style="opacity:0.022" fill="#43443f" d="M 96.5,-0.5 C 98.1667,-0.5 99.8333,-0.5 101.5,-0.5C 67.8333,33.8333 33.8333,67.8333 -0.5,101.5C -0.5,99.8333 -0.5,98.1667 -0.5,96.5C 32.1667,64.5 64.5,32.1667 96.5,-0.5 Z"/></g>
<g><path style="opacity:0.022" fill="#43443f" d="M 116.5,-0.5 C 118.167,-0.5 119.833,-0.5 121.5,-0.5C 81.1667,40.5 40.5,81.1667 -0.5,121.5C -0.5,119.833 -0.5,118.167 -0.5,116.5C 38.8333,77.8333 77.8333,38.8333 116.5,-0.5 Z"/></g>
<g><path style="opacity:0.022" fill="#43443f" d="M 136.5,-0.5 C 138.167,-0.5 139.833,-0.5 141.5,-0.5C 94.5,47.1667 47.1667,94.5 -0.5,141.5C -0.5,139.833 -0.5,138.167 -0.5,136.5C 45.5,91.1667 91.1667,45.5 136.5,-0.5 Z"/></g>
<g><path style="opacity:0.022" fill="#43443f" d="M 156.5,-0.5 C 158.167,-0.5 159.833,-0.5 161.5,-0.5C 107.833,53.8333 53.8333,107.833 -0.5,161.5C -0.5,159.833 -0.5,158.167 -0.5,156.5C 52.1667,104.5 104.5,52.1667 156.5,-0.5 Z"/></g>
<g><path style="opacity:0.022" fill="#43443f" d="M 176.5,-0.5 C 178.167,-0.5 179.833,-0.5 181.5,-0.5C 169.167,12.1667 156.833,24.8333 144.5,37.5C 142.167,38.1667 139.833,38.8333 137.5,39.5C 150.5,26.1667 163.5,12.8333 176.5,-0.5 Z"/></g>
<g><path style="opacity:0.022" fill="#43443f" d="M 196.5,-0.5 C 198.167,-0.5 199.833,-0.5 201.5,-0.5C 189.5,11.8333 177.5,24.1667 165.5,36.5C 163.833,36.5 162.167,36.5 160.5,36.5C 172.5,24.1667 184.5,11.8333 196.5,-0.5 Z"/></g>
<g><path style="opacity:0.022" fill="#43443f" d="M 216.5,-0.5 C 218.167,-0.5 219.833,-0.5 221.5,-0.5C 208.167,13.1667 194.833,26.8333 181.5,40.5C 180.005,40.0113 178.671,39.3446 177.5,38.5C 190.833,25.8333 203.833,12.8333 216.5,-0.5 Z"/></g>
<g><path style="opacity:0.022" fill="#43443f" d="M 236.5,-0.5 C 238.167,-0.5 239.833,-0.5 241.5,-0.5C 226.5,15.1667 211.167,30.5 195.5,45.5C 194.391,45.4431 193.391,45.1098 192.5,44.5C 207.167,29.5 221.833,14.5 236.5,-0.5 Z"/></g>
<g><path style="opacity:0.022" fill="#43443f" d="M 256.5,-0.5 C 258.167,-0.5 259.833,-0.5 261.5,-0.5C 244.167,17.5 226.5,35.1667 208.5,52.5C 207.391,52.4431 206.391,52.1098 205.5,51.5C 222.5,34.1667 239.5,16.8333 256.5,-0.5 Z"/></g>
<g><path style="opacity:0.022" fill="#43443f" d="M 276.5,-0.5 C 278.167,-0.5 279.833,-0.5 281.5,-0.5C 261.5,20.1667 241.167,40.5 220.5,60.5C 218.973,60.573 217.973,59.9063 217.5,58.5C 237.5,39.1667 257.167,19.5 276.5,-0.5 Z"/></g>
<g><path style="opacity:0.022" fill="#434440" d="M 296.5,-0.5 C 298.167,-0.5 299.833,-0.5 301.5,-0.5C 278.5,22.8333 255.5,46.1667 232.5,69.5C 230.973,69.573 229.973,68.9063 229.5,67.5C 251.833,44.8333 274.167,22.1667 296.5,-0.5 Z"/></g>
<g><path style="opacity:0.022" fill="#43443f" d="M 316.5,-0.5 C 318.167,-0.5 319.833,-0.5 321.5,-0.5C 295.5,26.1667 269.167,52.5 242.5,78.5C 241.5,78.1667 240.833,77.5 240.5,76.5C 265.833,50.8333 291.167,25.1667 316.5,-0.5 Z"/></g>
<g><path style="opacity:0.022" fill="#43443f" d="M 336.5,-0.5 C 338.167,-0.5 339.833,-0.5 341.5,-0.5C 312.167,29.1667 282.833,58.8333 253.5,88.5C 252.167,87.8333 251.167,86.8333 250.5,85.5C 279.5,57.1667 308.167,28.5 336.5,-0.5 Z"/></g>
<g><path style="opacity:0.022" fill="#434440" d="M 356.5,-0.5 C 358.167,-0.5 359.833,-0.5 361.5,-0.5C 346.833,14.5 332.167,29.5 317.5,44.5C 316.833,44.5 316.5,44.8333 316.5,45.5C 315.833,45.8333 315.167,46.1667 314.5,46.5C 311.807,47.8466 309.14,49.1799 306.5,50.5C 323.167,33.5 339.833,16.5 356.5,-0.5 Z"/></g>
<g><path style="opacity:0.022" fill="#43443f" d="M 376.5,-0.5 C 378.167,-0.5 379.833,-0.5 381.5,-0.5C 369.5,11.8333 357.5,24.1667 345.5,36.5C 343.5,36.8333 341.5,37.1667 339.5,37.5C 351.833,24.8333 364.167,12.1667 376.5,-0.5 Z"/></g>
<g><path style="opacity:0.022" fill="#43443f" d="M 396.5,-0.5 C 398.167,-0.5 399.833,-0.5 401.5,-0.5C 389.167,12.1667 376.833,24.8333 364.5,37.5C 363.292,36.7659 361.959,36.4326 360.5,36.5C 372.5,24.1667 384.5,11.8333 396.5,-0.5 Z"/></g>
<g><path style="opacity:0.022" fill="#43443f" d="M 416.5,-0.5 C 418.167,-0.5 419.833,-0.5 421.5,-0.5C 407.5,13.8333 393.5,28.1667 379.5,42.5C 378.29,42.0679 377.29,41.4013 376.5,40.5C 389.833,26.8333 403.167,13.1667 416.5,-0.5 Z"/></g>
<g><path style="opacity:0.022" fill="#43443f" d="M 436.5,-0.5 C 438.167,-0.5 439.833,-0.5 441.5,-0.5C 424.5,16.8333 407.5,34.1667 390.5,51.5C 389.167,50.8333 388.167,49.8333 387.5,48.5C 404.167,32.5 420.5,16.1667 436.5,-0.5 Z"/></g>
<g><path style="opacity:0.022" fill="#43443f" d="M 456.5,-0.5 C 458.167,-0.5 459.833,-0.5 461.5,-0.5C 440.5,20.8333 419.5,42.1667 398.5,63.5C 397.326,62.4863 396.66,61.153 396.5,59.5C 416.833,39.8333 436.833,19.8333 456.5,-0.5 Z"/></g>
<g><path style="opacity:0.022" fill="#43443f" d="M 476.5,-0.5 C 478.167,-0.5 479.833,-0.5 481.5,-0.5C 455.833,25.8333 429.833,51.8333 403.5,77.5C 402.766,76.2921 402.433,74.9587 402.5,73.5C 427.5,49.1667 452.167,24.5 476.5,-0.5 Z"/></g>
<g><path style="opacity:0.022" fill="#43443f" d="M 496.5,-0.5 C 498.167,-0.5 499.833,-0.5 501.5,-0.5C 470.167,31.5 438.5,63.1667 406.5,94.5C 406.737,93.209 406.404,92.209 405.5,91.5C 405.5,91.1667 405.5,90.8333 405.5,90.5C 436.167,60.5 466.5,30.1667 496.5,-0.5 Z"/></g>
<g><path style="opacity:0.022" fill="#43443f" d="M 511.5,5.5 C 511.5,7.16667 511.5,8.83333 511.5,10.5C 476.833,44.8333 442.167,79.1667 407.5,113.5C 407.5,111.833 407.5,110.167 407.5,108.5C 442.167,74.1667 476.833,39.8333 511.5,5.5 Z"/></g>
<g><path style="opacity:0.022" fill="#43443f" d="M 511.5,25.5 C 511.5,27.1667 511.5,28.8333 511.5,30.5C 476.167,65.5 440.833,100.5 405.5,135.5C 405.325,133.379 405.659,131.379 406.5,129.5C 441.5,94.8333 476.5,60.1667 511.5,25.5 Z"/></g>
<g><path style="opacity:0.985" fill="#50a7c2" d="M 345.5,36.5 C 350.5,36.5 355.5,36.5 360.5,36.5C 361.959,36.4326 363.292,36.7659 364.5,37.5C 368.603,38.0901 372.603,39.0901 376.5,40.5C 377.29,41.4013 378.29,42.0679 379.5,42.5C 382.02,44.2632 384.353,46.2632 386.5,48.5C 382.228,54.1098 377.562,59.4431 372.5,64.5C 372.167,64.5 371.833,64.5 371.5,64.5C 369.252,61.6066 366.252,59.9399 362.5,59.5C 361.081,58.5489 359.415,58.2155 357.5,58.5C 352.265,57.6627 346.932,57.996 341.5,59.5C 338.673,60.1084 336.007,61.1084 333.5,62.5C 319.293,67.7241 306.627,75.3908 295.5,85.5C 292.185,87.8081 288.851,90.1414 285.5,92.5C 285.369,91.7611 285.536,91.0944 286,90.5C 303.368,73.2986 320.535,55.9652 337.5,38.5C 337.842,37.6618 338.508,37.3284 339.5,37.5C 341.5,37.1667 343.5,36.8333 345.5,36.5 Z"/></g>
<g><path style="opacity:0.998" fill="#50a8c3" d="M 337.5,38.5 C 320.535,55.9652 303.368,73.2986 286,90.5C 285.536,91.0944 285.369,91.7611 285.5,92.5C 280.895,96.6023 276.395,100.936 272,105.5C 271.415,106.998 271.915,107.998 273.5,108.5C 275.091,111.431 277.091,114.098 279.5,116.5C 274.776,122.227 269.442,127.227 263.5,131.5C 261.5,129.167 259.5,126.833 257.5,124.5C 256.998,122.915 255.998,122.415 254.5,123C 253.002,125.664 251.002,127.83 248.5,129.5C 221.584,154.914 195.084,180.914 169,207.5C 168.601,207.272 168.435,206.938 168.5,206.5C 172.639,198.227 177.305,190.227 182.5,182.5C 182.043,181.702 181.376,181.369 180.5,181.5C 225.215,136.452 269.882,91.4521 314.5,46.5C 315.167,46.1667 315.833,45.8333 316.5,45.5C 317.167,45.5 317.5,45.1667 317.5,44.5C 323.972,41.8988 330.638,39.8988 337.5,38.5 Z"/></g>
<g><path style="opacity:0.022" fill="#444440" d="M 511.5,45.5 C 511.5,47.1667 511.5,48.8333 511.5,50.5C 474.833,86.8333 438.167,123.167 401.5,159.5C 401.517,157.435 401.85,155.435 402.5,153.5C 438.833,117.5 475.167,81.5 511.5,45.5 Z"/></g>
<g><path style="opacity:0.022" fill="#434440" d="M 158.5,57.5 C 159.959,57.4326 161.292,57.7659 162.5,58.5C 150.833,70.8333 138.833,82.8333 126.5,94.5C 126.833,92.5 127.167,90.5 127.5,88.5C 138.167,78.5 148.5,68.1667 158.5,57.5 Z"/></g>
<g><path style="opacity:0.022" fill="#43443f" d="M 357.5,58.5 C 359.415,58.2155 361.081,58.5489 362.5,59.5C 338.5,82.8333 314.833,106.5 291.5,130.5C 290.599,129.71 289.932,128.71 289.5,127.5C 312.167,104.5 334.833,81.5 357.5,58.5 Z"/></g>
<g><path style="opacity:0.022" fill="#444440" d="M 341.5,59.5 C 321.833,79.5 302.167,99.5 282.5,119.5C 281.094,119.027 280.427,118.027 280.5,116.5C 298.167,98.5 315.833,80.5 333.5,62.5C 336.007,61.1084 338.673,60.1084 341.5,59.5 Z"/></g>
<g><path style="opacity:0.022" fill="#434440" d="M 174.5,61.5 C 175.959,61.4326 177.292,61.7659 178.5,62.5C 161.167,80.5 143.5,98.1667 125.5,115.5C 125.5,113.833 125.5,112.167 125.5,110.5C 142.167,94.5 158.5,78.1667 174.5,61.5 Z"/></g>
<g><path style="opacity:0.998" fill="#50a8c3" d="M 208.5,53.5 C 211.661,54.9131 214.661,56.5797 217.5,58.5C 217.973,59.9063 218.973,60.573 220.5,60.5C 223.19,63.1846 226.19,65.5179 229.5,67.5C 229.973,68.9063 230.973,69.573 232.5,69.5C 234.751,72.2948 237.418,74.6281 240.5,76.5C 240.833,77.5 241.5,78.1667 242.5,78.5C 245.141,80.8044 247.808,83.1377 250.5,85.5C 251.167,86.8333 252.167,87.8333 253.5,88.5C 254.002,90.0847 255.002,90.5847 256.5,90C 269.958,76.0233 284.958,64.19 301.5,54.5C 271.702,84.7987 241.702,114.965 211.5,145C 210.552,145.483 209.552,145.649 208.5,145.5C 218.074,132.419 228.24,119.752 239,107.5C 239.585,106.002 239.085,105.002 237.5,104.5C 236.833,103.167 235.833,102.167 234.5,101.5C 232.249,98.7052 229.582,96.3719 226.5,94.5C 226.167,93.5 225.5,92.8333 224.5,92.5C 221.81,89.8154 218.81,87.4821 215.5,85.5C 215.167,84.5 214.5,83.8333 213.5,83.5C 211.025,80.7589 208.025,78.7589 204.5,77.5C 203.833,76.1667 202.833,75.1667 201.5,74.5C 198.797,72.8193 196.131,71.1526 193.5,69.5C 197.773,63.5578 202.773,58.2244 208.5,53.5 Z"/></g>
<g><path style="opacity:0.022" fill="#444440" d="M 371.5,64.5 C 371.833,64.5 372.167,64.5 372.5,64.5C 373.167,65.5 373.833,66.5 374.5,67.5C 349.5,91.8333 324.833,116.5 300.5,141.5C 299.167,140.833 298.167,139.833 297.5,138.5C 322.5,114.167 347.167,89.5 371.5,64.5 Z"/></g>
<g><path style="opacity:0.022" fill="#43443f" d="M 111.5,65.5 C 110.833,67.8333 110.167,70.1667 109.5,72.5C 108.833,72.5 108.5,72.8333 108.5,73.5C 72.1667,109.5 35.8333,145.5 -0.5,181.5C -0.5,179.833 -0.5,178.167 -0.5,176.5C 36.8333,139.5 74.1667,102.5 111.5,65.5 Z"/></g>
<g><path style="opacity:0.983" fill="#50a8c3" d="M 386.5,48.5 C 386.833,48.5 387.167,48.5 387.5,48.5C 388.167,49.8333 389.167,50.8333 390.5,51.5C 392.147,54.4735 394.147,57.1401 396.5,59.5C 396.66,61.153 397.326,62.4863 398.5,63.5C 399.658,66.9889 400.991,70.3223 402.5,73.5C 402.433,74.9587 402.766,76.2921 403.5,77.5C 404.646,81.7536 405.313,86.087 405.5,90.5C 405.5,90.8333 405.5,91.1667 405.5,91.5C 398.833,97.8333 392.167,104.167 385.5,110.5C 385.628,106.119 385.295,101.785 384.5,97.5C 384.5,95.8333 384.5,94.1667 384.5,92.5C 383.503,88.5215 382.503,84.5215 381.5,80.5C 381.011,79.0048 380.345,77.6715 379.5,76.5C 378.59,73.0078 376.924,70.0078 374.5,67.5C 373.833,66.5 373.167,65.5 372.5,64.5C 377.562,59.4431 382.228,54.1098 386.5,48.5 Z"/></g>
<g><path style="opacity:0.022" fill="#43443f" d="M 511.5,65.5 C 511.5,67.1667 511.5,68.8333 511.5,70.5C 476.167,105.167 441.167,140.167 406.5,175.5C 405.167,175.167 403.833,174.833 402.5,174.5C 438.5,137.833 474.833,101.5 511.5,65.5 Z"/></g>
<g><path style="opacity:0.022" fill="#444440" d="M 188.5,67.5 C 190.153,67.6596 191.486,68.3263 192.5,69.5C 170.833,90.8333 149.167,112.167 127.5,133.5C 127.167,132.167 126.833,130.833 126.5,129.5C 147.5,109.167 168.167,88.5 188.5,67.5 Z"/></g>
<g><path style="opacity:0.986" fill="#50a7c2" d="M 160.5,36.5 C 162.167,36.5 163.833,36.5 165.5,36.5C 169.476,37.2952 173.476,37.9619 177.5,38.5C 178.671,39.3446 180.005,40.0113 181.5,40.5C 185.275,41.555 188.942,42.8883 192.5,44.5C 193.391,45.1098 194.391,45.4431 195.5,45.5C 198.798,47.4854 202.131,49.4854 205.5,51.5C 206.391,52.1098 207.391,52.4431 208.5,52.5C 208.5,52.8333 208.5,53.1667 208.5,53.5C 202.773,58.2244 197.773,63.5578 193.5,69.5C 193.167,69.5 192.833,69.5 192.5,69.5C 191.486,68.3263 190.153,67.6596 188.5,67.5C 185.416,65.4634 182.083,63.7968 178.5,62.5C 177.292,61.7659 175.959,61.4326 174.5,61.5C 170.8,59.7191 166.8,58.7191 162.5,58.5C 161.292,57.7659 159.959,57.4326 158.5,57.5C 147.834,57.2483 139.667,61.5816 134,70.5C 130.937,76.1913 128.77,82.1913 127.5,88.5C 127.167,90.5 126.833,92.5 126.5,94.5C 126.5,94.8333 126.5,95.1667 126.5,95.5C 119.167,102.5 111.833,109.5 104.5,116.5C 103.89,115.609 103.557,114.609 103.5,113.5C 103.472,108.138 103.806,102.805 104.5,97.5C 104.5,95.8333 104.5,94.1667 104.5,92.5C 105.673,86.1389 107.007,79.8056 108.5,73.5C 109.167,73.5 109.5,73.1667 109.5,72.5C 110.167,70.1667 110.833,67.8333 111.5,65.5C 117.167,53.8333 125.833,45.1667 137.5,39.5C 139.833,38.8333 142.167,38.1667 144.5,37.5C 149.772,36.5998 155.105,36.2665 160.5,36.5 Z"/></g>
<g><path style="opacity:0.022" fill="#444440" d="M 201.5,74.5 C 202.833,75.1667 203.833,76.1667 204.5,77.5C 179.833,101.833 155.167,126.167 130.5,150.5C 129.566,149.432 129.232,148.099 129.5,146.5C 153.833,122.833 177.833,98.8333 201.5,74.5 Z"/></g>
<g><path style="opacity:0.022" fill="#444440" d="M 379.5,76.5 C 380.345,77.6715 381.011,79.0048 381.5,80.5C 357.167,104.5 332.833,128.5 308.5,152.5C 307.094,152.027 306.427,151.027 306.5,149.5C 331.167,125.5 355.5,101.167 379.5,76.5 Z"/></g>
<g><path style="opacity:0.022" fill="#43443f" d="M 213.5,83.5 C 214.5,83.8333 215.167,84.5 215.5,85.5C 188.5,112.833 161.5,140.167 134.5,167.5C 133.566,166.432 133.232,165.099 133.5,163.5C 159.833,136.5 186.5,109.833 213.5,83.5 Z"/></g>
<g><path style="opacity:0.022" fill="#43443f" d="M 511.5,85.5 C 511.5,87.1667 511.5,88.8333 511.5,90.5C 481.167,120.167 451.167,150.167 421.5,180.5C 419.847,180.34 418.514,179.674 417.5,178.5C 448.833,147.5 480.167,116.5 511.5,85.5 Z"/></g>
<g><path style="opacity:0.022" fill="#444441" d="M 295.5,85.5 C 288.167,93.1667 280.833,100.833 273.5,108.5C 271.915,107.998 271.415,106.998 272,105.5C 276.395,100.936 280.895,96.6023 285.5,92.5C 288.851,90.1414 292.185,87.8081 295.5,85.5 Z"/></g>
<g><path style="opacity:0.022" fill="#43443f" d="M 104.5,92.5 C 104.5,94.1667 104.5,95.8333 104.5,97.5C 69.5,132.167 34.5,166.833 -0.5,201.5C -0.5,199.833 -0.5,198.167 -0.5,196.5C 34.5,161.833 69.5,127.167 104.5,92.5 Z"/></g>
<g><path style="opacity:0.022" fill="#43443f" d="M 224.5,92.5 C 225.5,92.8333 226.167,93.5 226.5,94.5C 204.167,117.167 181.833,139.833 159.5,162.5C 158.833,162.5 158.5,162.833 158.5,163.5C 156.833,163.5 155.167,163.5 153.5,163.5C 176.833,139.5 200.5,115.833 224.5,92.5 Z"/></g>
<g><path style="opacity:0.022" fill="#43443f" d="M 384.5,92.5 C 384.5,94.1667 384.5,95.8333 384.5,97.5C 363.833,117.833 343.167,138.167 322.5,158.5C 321.167,158.5 319.833,158.5 318.5,158.5C 340.167,136.167 362.167,114.167 384.5,92.5 Z"/></g>
<g><path style="opacity:0.022" fill="#43443f" d="M 234.5,101.5 C 235.833,102.167 236.833,103.167 237.5,104.5C 218.833,122.5 200.5,140.833 182.5,159.5C 180.5,159.833 178.5,160.167 176.5,160.5C 195.833,140.833 215.167,121.167 234.5,101.5 Z"/></g>
<g><path style="opacity:0.022" fill="#43443f" d="M 511.5,105.5 C 511.5,107.167 511.5,108.833 511.5,110.5C 486.167,135.5 460.833,160.5 435.5,185.5C 434.209,185.737 433.209,185.404 432.5,184.5C 458.5,157.833 484.833,131.5 511.5,105.5 Z"/></g>
<g><path style="opacity:0.022" fill="#43443f" d="M 385.5,111.5 C 385.5,113.167 385.5,114.833 385.5,116.5C 370.167,131.167 355.167,146.167 340.5,161.5C 339.167,161.167 337.833,160.833 336.5,160.5C 352.5,143.833 368.833,127.5 385.5,111.5 Z"/></g>
<g><path style="opacity:0.022" fill="#434440" d="M 103.5,113.5 C 103.557,114.609 103.89,115.609 104.5,116.5C 104.5,116.833 104.5,117.167 104.5,117.5C 69.5,152.167 34.5,186.833 -0.5,221.5C -0.5,219.833 -0.5,218.167 -0.5,216.5C 34.1667,182.167 68.8333,147.833 103.5,113.5 Z"/></g>
<g><path style="opacity:0.981" fill="#50a8c3" d="M 126.5,95.5 C 125.746,100.463 125.413,105.463 125.5,110.5C 125.5,112.167 125.5,113.833 125.5,115.5C 126.127,120.141 126.46,124.807 126.5,129.5C 126.833,130.833 127.167,132.167 127.5,133.5C 127.844,137.894 128.51,142.228 129.5,146.5C 123.804,153.197 117.47,159.197 110.5,164.5C 109.833,160.833 109.167,157.167 108.5,153.5C 108.567,152.041 108.234,150.708 107.5,149.5C 107.018,145.127 106.352,140.794 105.5,136.5C 105.5,134.833 105.5,133.167 105.5,131.5C 104.559,126.93 104.226,122.263 104.5,117.5C 104.5,117.167 104.5,116.833 104.5,116.5C 111.833,109.5 119.167,102.5 126.5,95.5 Z"/></g>
<g><path style="opacity:0.022" fill="#444743" d="M 257.5,124.5 C 252.167,129.5 246.833,134.5 241.5,139.5C 243.808,136.185 246.141,132.851 248.5,129.5C 251.002,127.83 253.002,125.664 254.5,123C 255.998,122.415 256.998,122.915 257.5,124.5 Z"/></g>
<g><path style="opacity:0.022" fill="#43443f" d="M 511.5,125.5 C 511.5,127.167 511.5,128.833 511.5,130.5C 490.5,150.833 469.833,171.5 449.5,192.5C 448.29,192.068 447.29,191.401 446.5,190.5C 467.833,168.5 489.5,146.833 511.5,125.5 Z"/></g>
<g><path style="opacity:0.022" fill="#43443f" d="M 105.5,131.5 C 105.5,133.167 105.5,134.833 105.5,136.5C 70.1667,171.5 34.8333,206.5 -0.5,241.5C -0.5,239.833 -0.5,238.167 -0.5,236.5C 34.8333,201.5 70.1667,166.5 105.5,131.5 Z"/></g>
<g><path style="opacity:0.022" fill="#43443f" d="M 263.5,132.5 C 264.833,133.167 265.833,134.167 266.5,135.5C 259.5,141.833 252.833,148.5 246.5,155.5C 246.167,155.5 245.833,155.5 245.5,155.5C 244.167,155.5 242.833,155.5 241.5,155.5C 248.833,147.833 256.167,140.167 263.5,132.5 Z"/></g>
<g><path style="opacity:0.022" fill="#43443f" d="M 383.5,133.5 C 383.675,135.621 383.341,137.621 382.5,139.5C 374.167,147.5 365.833,155.5 357.5,163.5C 356.167,163.5 354.833,163.5 353.5,163.5C 363.167,153.167 373.167,143.167 383.5,133.5 Z"/></g>
<g><path style="opacity:0.991" fill="#50a7c2" d="M 405.5,91.5 C 406.404,92.209 406.737,93.209 406.5,94.5C 406.54,99.1925 406.873,103.859 407.5,108.5C 407.5,110.167 407.5,111.833 407.5,113.5C 406.6,118.772 406.267,124.105 406.5,129.5C 405.659,131.379 405.325,133.379 405.5,135.5C 404.686,141.531 403.686,147.531 402.5,153.5C 401.85,155.435 401.517,157.435 401.5,159.5C 400.506,163.46 399.506,167.46 398.5,171.5C 398.747,172.713 399.414,173.38 400.5,173.5C 400.649,174.552 400.483,175.552 400,176.5C 388.247,188.756 376.08,200.423 363.5,211.5C 365.496,205.178 367.496,198.845 369.5,192.5C 370.234,191.292 370.567,189.959 370.5,188.5C 369.5,188.5 368.5,188.5 367.5,188.5C 363.5,187.5 359.5,186.5 355.5,185.5C 353.833,185.5 352.167,185.5 350.5,185.5C 346.764,184.011 342.764,183.344 338.5,183.5C 337.081,182.549 335.415,182.216 333.5,182.5C 328.879,180.772 327.879,181.772 330.5,185.5C 330.932,186.71 331.599,187.71 332.5,188.5C 332.833,189.167 333.167,189.833 333.5,190.5C 332.448,190.351 331.448,190.517 330.5,191C 325.965,195.703 321.298,200.203 316.5,204.5C 315.833,203.833 315.167,203.167 314.5,202.5C 312.89,198.9 310.89,195.566 308.5,192.5C 308.068,191.29 307.401,190.29 306.5,189.5C 306.5,189.167 306.5,188.833 306.5,188.5C 316.78,179.888 326.447,170.555 335.5,160.5C 335.833,160.5 336.167,160.5 336.5,160.5C 337.833,160.833 339.167,161.167 340.5,161.5C 344.894,161.844 349.228,162.51 353.5,163.5C 354.833,163.5 356.167,163.5 357.5,163.5C 361.692,164.608 366.025,165.608 370.5,166.5C 371.833,166.833 373.167,167.167 374.5,167.5C 375.5,167.5 376.5,167.5 377.5,167.5C 377.5,166.5 377.5,165.5 377.5,164.5C 378.319,162.228 378.985,159.894 379.5,157.5C 380.758,151.545 381.758,145.545 382.5,139.5C 383.341,137.621 383.675,135.621 383.5,133.5C 384.167,127.833 384.833,122.167 385.5,116.5C 385.5,114.833 385.5,113.167 385.5,111.5C 385.5,111.167 385.5,110.833 385.5,110.5C 392.167,104.167 398.833,97.8333 405.5,91.5 Z M 377.5,164.5 C 377.5,165.5 377.5,166.5 377.5,167.5C 376.5,167.5 375.5,167.5 374.5,167.5C 375.167,166.167 376.167,165.167 377.5,164.5 Z M 333.5,182.5 C 332.833,183.833 331.833,184.833 330.5,185.5C 327.879,181.772 328.879,180.772 333.5,182.5 Z M 338.5,183.5 C 342.764,183.344 346.764,184.011 350.5,185.5C 346.833,189.833 342.833,193.833 338.5,197.5C 336.6,195.381 334.934,193.047 333.5,190.5C 333.167,189.833 332.833,189.167 332.5,188.5C 334.5,186.833 336.5,185.167 338.5,183.5 Z"/></g>
<g><path style="opacity:0.022" fill="#444440" d="M 273.5,143.5 C 274.401,144.29 275.068,145.29 275.5,146.5C 272.167,149.167 269.167,152.167 266.5,155.5C 264.833,155.5 263.167,155.5 261.5,155.5C 265.167,151.167 269.167,147.167 273.5,143.5 Z"/></g>
<g><path style="opacity:0.022" fill="#434440" d="M 511.5,145.5 C 511.5,147.167 511.5,148.833 511.5,150.5C 494.833,166.5 478.5,182.833 462.5,199.5C 460.973,199.573 459.973,198.906 459.5,197.5C 476.5,179.833 493.833,162.5 511.5,145.5 Z"/></g>
<g><path style="opacity:0.022" fill="#444440" d="M 107.5,149.5 C 108.234,150.708 108.567,152.041 108.5,153.5C 97.8333,163.5 87.5,173.833 77.5,184.5C 76.8333,184.5 76.5,184.833 76.5,185.5C 73.6223,187.105 70.6223,188.439 67.5,189.5C 80.5,175.833 93.8333,162.5 107.5,149.5 Z"/></g>
<g><path style="opacity:0.995" fill="#50a7c2" d="M 129.5,146.5 C 129.232,148.099 129.566,149.432 130.5,150.5C 130.882,155.092 131.882,159.425 133.5,163.5C 133.232,165.099 133.566,166.432 134.5,167.5C 123.86,177.473 113.527,187.806 103.5,198.5C 102.71,199.401 101.71,200.068 100.5,200.5C 98.0347,200.767 95.7014,201.434 93.5,202.5C 92.8333,202.5 92.5,202.833 92.5,203.5C 82.4252,206.3 73.0918,210.633 64.5,216.5C 62.7162,216.893 61.0495,217.559 59.5,218.5C 72.1667,204.833 84.8333,191.167 97.5,177.5C 98.609,177.443 99.609,177.11 100.5,176.5C 102.965,176.233 105.299,175.566 107.5,174.5C 109.117,173.962 110.784,173.629 112.5,173.5C 112.768,171.901 112.434,170.568 111.5,169.5C 111.768,167.901 111.434,166.568 110.5,165.5C 110.5,165.167 110.5,164.833 110.5,164.5C 117.47,159.197 123.804,153.197 129.5,146.5 Z"/></g>
<g><path style="opacity:0.993" fill="#50a8c2" d="M 279.5,116.5 C 279.833,116.5 280.167,116.5 280.5,116.5C 280.427,118.027 281.094,119.027 282.5,119.5C 284.843,122.207 287.177,124.874 289.5,127.5C 289.932,128.71 290.599,129.71 291.5,130.5C 293.5,133.167 295.5,135.833 297.5,138.5C 298.167,139.833 299.167,140.833 300.5,141.5C 302.147,144.473 304.147,147.14 306.5,149.5C 306.427,151.027 307.094,152.027 308.5,152.5C 310.071,157.399 313.404,159.399 318.5,158.5C 319.833,158.5 321.167,158.5 322.5,158.5C 326.657,159.449 330.99,160.116 335.5,160.5C 326.447,170.555 316.78,179.888 306.5,188.5C 304.5,185.833 302.5,183.167 300.5,180.5C 300.027,179.094 299.027,178.427 297.5,178.5C 292.807,178.46 288.141,178.127 283.5,177.5C 281.833,177.5 280.167,177.5 278.5,177.5C 273.5,177.5 268.5,177.5 263.5,177.5C 261.833,177.5 260.167,177.5 258.5,177.5C 253.5,177.5 248.5,177.5 243.5,177.5C 241.833,177.5 240.167,177.5 238.5,177.5C 234.167,177.5 229.833,177.5 225.5,177.5C 231.775,169.888 238.442,162.554 245.5,155.5C 245.833,155.5 246.167,155.5 246.5,155.5C 251.5,155.5 256.5,155.5 261.5,155.5C 263.167,155.5 264.833,155.5 266.5,155.5C 271.5,155.5 276.5,155.5 281.5,155.5C 280.318,151.979 278.318,148.979 275.5,146.5C 275.068,145.29 274.401,144.29 273.5,143.5C 271.157,140.793 268.823,138.126 266.5,135.5C 265.833,134.167 264.833,133.167 263.5,132.5C 263.5,132.167 263.5,131.833 263.5,131.5C 269.442,127.227 274.776,122.227 279.5,116.5 Z"/></g>
<g><path style="opacity:0.992" fill="#50a7c1" d="M 248.5,129.5 C 246.141,132.851 243.808,136.185 241.5,139.5C 236.625,144.208 232.292,149.375 228.5,155C 232.821,155.499 237.154,155.666 241.5,155.5C 242.833,155.5 244.167,155.5 245.5,155.5C 238.442,162.554 231.775,169.888 225.5,177.5C 224.391,177.557 223.391,177.89 222.5,178.5C 220.833,178.5 219.167,178.5 217.5,178.5C 215.473,178.338 213.473,178.505 211.5,179C 207.523,183.799 204.19,188.965 201.5,194.5C 200.833,194.5 200.5,194.833 200.5,195.5C 197.65,199.199 195.317,203.199 193.5,207.5C 191.774,209.228 190.441,211.228 189.5,213.5C 188.761,213.369 188.094,213.536 187.5,214C 171.917,229.75 156.251,245.25 140.5,260.5C 142.188,258.523 142.521,256.523 141.5,254.5C 140.724,250.948 139.391,247.614 137.5,244.5C 137.34,242.847 136.674,241.514 135.5,240.5C 135.5,240.167 135.5,239.833 135.5,239.5C 141.444,234.894 147.11,229.894 152.5,224.5C 153.167,225.167 153.833,225.833 154.5,226.5C 154.369,227.376 154.702,228.043 155.5,228.5C 156.705,227.423 157.372,226.09 157.5,224.5C 158.167,224.5 158.5,224.167 158.5,223.5C 160.692,220.45 162.358,217.117 163.5,213.5C 165.424,211.305 167.091,208.972 168.5,206.5C 168.435,206.938 168.601,207.272 169,207.5C 195.084,180.914 221.584,154.914 248.5,129.5 Z M 157.5,224.5 C 157.372,226.09 156.705,227.423 155.5,228.5C 154.702,228.043 154.369,227.376 154.5,226.5C 155.5,225.833 156.5,225.167 157.5,224.5 Z"/></g>
<g><path style="opacity:0.022" fill="#434440" d="M 379.5,157.5 C 378.985,159.894 378.319,162.228 377.5,164.5C 376.167,165.167 375.167,166.167 374.5,167.5C 373.167,167.167 371.833,166.833 370.5,166.5C 373.167,163.167 376.167,160.167 379.5,157.5 Z"/></g>
<g><path style="opacity:0.983" fill="#50a7c2" d="M 314.5,46.5 C 269.882,91.4521 225.215,136.452 180.5,181.5C 179.833,181.833 179.167,182.167 178.5,182.5C 176.833,182.5 175.167,182.5 173.5,182.5C 172.833,182.5 172.5,182.833 172.5,183.5C 166.359,183.857 160.359,184.857 154.5,186.5C 152.379,186.325 150.379,186.659 148.5,187.5C 145.833,187.833 143.167,188.167 140.5,188.5C 140.595,190.786 141.262,192.786 142.5,194.5C 142.263,195.791 142.596,196.791 143.5,197.5C 144.065,201.537 145.399,205.203 147.5,208.5C 147.433,209.959 147.766,211.292 148.5,212.5C 149.833,216.167 151.167,219.833 152.5,223.5C 152.5,223.833 152.5,224.167 152.5,224.5C 147.11,229.894 141.444,234.894 135.5,239.5C 134.406,236.318 133.072,233.318 131.5,230.5C 131.167,229.167 130.833,227.833 130.5,226.5C 129.011,222.677 127.344,219.01 125.5,215.5C 125.737,214.209 125.404,213.209 124.5,212.5C 123.739,208.216 122.405,204.216 120.5,200.5C 120.737,199.209 120.404,198.209 119.5,197.5C 119.5,196.5 119.5,195.5 119.5,194.5C 114.112,195.63 108.778,196.963 103.5,198.5C 113.527,187.806 123.86,177.473 134.5,167.5C 140.914,166.417 147.248,165.084 153.5,163.5C 155.167,163.5 156.833,163.5 158.5,163.5C 159.167,163.5 159.5,163.167 159.5,162.5C 165.191,162.02 170.858,161.354 176.5,160.5C 178.5,160.167 180.5,159.833 182.5,159.5C 187.833,159.067 193.166,158.567 198.5,158C 201.732,153.672 205.066,149.506 208.5,145.5C 209.552,145.649 210.552,145.483 211.5,145C 241.702,114.965 271.702,84.7987 301.5,54.5C 302.945,52.9373 304.611,51.604 306.5,50.5C 309.14,49.1799 311.807,47.8466 314.5,46.5 Z"/></g>
<g><path style="opacity:0.022" fill="#43443f" d="M 110.5,165.5 C 111.434,166.568 111.768,167.901 111.5,169.5C 110.167,171.167 108.833,172.833 107.5,174.5C 105.299,175.566 102.965,176.233 100.5,176.5C 103.833,172.833 107.167,169.167 110.5,165.5 Z"/></g>
<g><path style="opacity:0.022" fill="#43443f" d="M 511.5,165.5 C 511.5,167.167 511.5,168.833 511.5,170.5C 498.833,182.5 486.5,194.833 474.5,207.5C 472.973,207.573 471.973,206.906 471.5,205.5C 484.5,191.833 497.833,178.5 511.5,165.5 Z"/></g>
<g><path style="opacity:0.989" fill="#50a8c2" d="M 400.5,173.5 C 401.167,173.833 401.833,174.167 402.5,174.5C 403.833,174.833 405.167,175.167 406.5,175.5C 410.019,176.964 413.686,177.964 417.5,178.5C 418.514,179.674 419.847,180.34 421.5,180.5C 425.054,182.109 428.721,183.442 432.5,184.5C 433.209,185.404 434.209,185.737 435.5,185.5C 438.836,187.731 442.503,189.397 446.5,190.5C 447.29,191.401 448.29,192.068 449.5,192.5C 452.661,193.913 455.661,195.58 458.5,197.5C 453.473,203.194 448.14,208.527 442.5,213.5C 439.167,211.833 435.833,210.167 432.5,208.5C 431.292,207.766 429.959,207.433 428.5,207.5C 425.47,205.597 422.137,204.263 418.5,203.5C 417.486,202.326 416.153,201.66 414.5,201.5C 410.833,200.167 407.167,198.833 403.5,197.5C 402.167,197.167 400.833,196.833 399.5,196.5C 396.933,195.525 394.267,194.858 391.5,194.5C 390.37,199.224 389.036,203.891 387.5,208.5C 386.501,211.162 385.501,213.828 384.5,216.5C 381.501,224.495 378.501,232.495 375.5,240.5C 374.833,240.5 374.5,240.833 374.5,241.5C 373.833,242.833 373.167,244.167 372.5,245.5C 358.753,257.744 345.419,270.578 332.5,284C 331.255,284.791 329.922,285.291 328.5,285.5C 333.025,277.783 337.025,269.783 340.5,261.5C 341.167,261.5 341.5,261.167 341.5,260.5C 343.339,258.21 343.672,255.877 342.5,253.5C 341.341,249.849 339.674,246.515 337.5,243.5C 337.443,242.391 337.11,241.391 336.5,240.5C 334.988,236.799 332.988,233.466 330.5,230.5C 330.443,229.391 330.11,228.391 329.5,227.5C 327.485,224.131 325.485,220.798 323.5,217.5C 323.573,215.973 322.906,214.973 321.5,214.5C 320.226,211.24 318.56,208.24 316.5,205.5C 316.5,205.167 316.5,204.833 316.5,204.5C 321.298,200.203 325.965,195.703 330.5,191C 331.448,190.517 332.448,190.351 333.5,190.5C 334.934,193.047 336.6,195.381 338.5,197.5C 338.66,199.153 339.326,200.486 340.5,201.5C 341.917,204.669 343.583,207.669 345.5,210.5C 345.427,212.027 346.094,213.027 347.5,213.5C 348.642,217.117 350.308,220.45 352.5,223.5C 352.932,224.71 353.599,225.71 354.5,226.5C 354.369,227.376 354.702,228.043 355.5,228.5C 356.705,227.423 357.372,226.09 357.5,224.5C 358.167,224.5 358.5,224.167 358.5,223.5C 359.455,221.254 360.122,218.921 360.5,216.5C 361.263,214.632 362.263,212.965 363.5,211.5C 376.08,200.423 388.247,188.756 400,176.5C 400.483,175.552 400.649,174.552 400.5,173.5 Z M 369.5,192.5 C 367.496,198.845 365.496,205.178 363.5,211.5C 362.263,212.965 361.263,214.632 360.5,216.5C 357.833,218.833 355.167,221.167 352.5,223.5C 350.308,220.45 348.642,217.117 347.5,213.5C 354.833,206.5 362.167,199.5 369.5,192.5 Z M 399.5,196.5 C 395.833,200.833 391.833,204.833 387.5,208.5C 389.036,203.891 390.37,199.224 391.5,194.5C 394.267,194.858 396.933,195.525 399.5,196.5 Z M 357.5,224.5 C 357.372,226.09 356.705,227.423 355.5,228.5C 354.702,228.043 354.369,227.376 354.5,226.5C 355.5,225.833 356.5,225.167 357.5,224.5 Z"/></g>
<g><path style="opacity:0.022" fill="#43443f" d="M 238.5,177.5 C 240.167,177.5 241.833,177.5 243.5,177.5C 219.167,202.5 194.5,227.167 169.5,251.5C 170.561,248.378 171.895,245.378 173.5,242.5C 174.167,242.5 174.5,242.167 174.5,241.5C 196.167,220.5 217.5,199.167 238.5,177.5 Z"/></g>
<g><path style="opacity:0.022" fill="#43443f" d="M 258.5,177.5 C 260.167,177.5 261.833,177.5 263.5,177.5C 233.833,207.833 203.833,237.833 173.5,267.5C 172.599,266.71 171.932,265.71 171.5,264.5C 200.833,235.833 229.833,206.833 258.5,177.5 Z"/></g>
<g><path style="opacity:0.022" fill="#444440" d="M 278.5,177.5 C 280.167,177.5 281.833,177.5 283.5,177.5C 268.167,193.167 252.833,208.833 237.5,224.5C 236.833,224.5 236.5,224.833 236.5,225.5C 235.833,225.5 235.5,225.833 235.5,226.5C 232.167,229.167 229.167,232.167 226.5,235.5C 225.833,235.5 225.5,235.833 225.5,236.5C 224.833,236.5 224.5,236.833 224.5,237.5C 209.833,251.833 195.167,266.167 180.5,280.5C 179.094,280.027 178.427,279.027 178.5,277.5C 212.167,244.5 245.5,211.167 278.5,177.5 Z"/></g>
<g><path style="opacity:0.991" fill="#50a8c3" d="M 97.5,177.5 C 84.8333,191.167 72.1667,204.833 59.5,218.5C 56.8717,220.488 54.205,222.488 51.5,224.5C 50.8333,224.5 50.5,224.833 50.5,225.5C 49.8333,225.5 49.5,225.833 49.5,226.5C 48.8333,226.5 48.5,226.833 48.5,227.5C 47.8333,227.5 47.5,227.833 47.5,228.5C 46.8333,228.5 46.5,228.833 46.5,229.5C 45.8333,229.5 45.5,229.833 45.5,230.5C 44.8333,230.5 44.5,230.833 44.5,231.5C 42.5,231.5 41.5,232.5 41.5,234.5C 40.8333,234.5 40.5,234.833 40.5,235.5C 39.8333,235.5 39.5,235.833 39.5,236.5C 38.8333,236.5 38.5,236.833 38.5,237.5C 37.8333,237.5 37.5,237.833 37.5,238.5C 36.2485,240.001 35.2485,241.668 34.5,243.5C 26.2203,250.443 18.2203,257.776 10.5,265.5C 9.62743,261.232 9.2941,256.898 9.5,252.5C 9.51715,250.435 9.85048,248.435 10.5,246.5C 15.2526,228.908 25.2526,215.075 40.5,205C 49.2012,199.316 58.2012,194.149 67.5,189.5C 70.6223,188.439 73.6223,187.105 76.5,185.5C 77.1667,185.5 77.5,185.167 77.5,184.5C 84.3104,182.563 90.9771,180.23 97.5,177.5 Z"/></g>
<g><path style="opacity:0.022" fill="#444440" d="M 217.5,178.5 C 219.167,178.5 220.833,178.5 222.5,178.5C 213.167,188.5 203.5,198.167 193.5,207.5C 195.317,203.199 197.65,199.199 200.5,195.5C 201.167,195.5 201.5,195.167 201.5,194.5C 207.167,189.5 212.5,184.167 217.5,178.5 Z"/></g>
<g><path style="opacity:0.022" fill="#43443f" d="M 297.5,178.5 C 299.027,178.427 300.027,179.094 300.5,180.5C 287.5,193.833 274.5,207.167 261.5,220.5C 259.833,220.5 258.167,220.5 256.5,220.5C 270.167,206.5 283.833,192.5 297.5,178.5 Z"/></g>
<g><path style="opacity:0.022" fill="#43443f" d="M 173.5,182.5 C 175.167,182.5 176.833,182.5 178.5,182.5C 168.833,192.833 158.833,202.833 148.5,212.5C 147.766,211.292 147.433,209.959 147.5,208.5C 156.167,200.5 164.5,192.167 172.5,183.5C 173.167,183.5 173.5,183.167 173.5,182.5 Z"/></g>
<g><path style="opacity:0.022" fill="#43443f" d="M 333.5,182.5 C 335.415,182.216 337.081,182.549 338.5,183.5C 336.5,185.167 334.5,186.833 332.5,188.5C 331.599,187.71 330.932,186.71 330.5,185.5C 331.833,184.833 332.833,183.833 333.5,182.5 Z"/></g>
<g><path style="opacity:0.022" fill="#43443f" d="M 350.5,185.5 C 352.167,185.5 353.833,185.5 355.5,185.5C 350.5,190.833 345.5,196.167 340.5,201.5C 339.326,200.486 338.66,199.153 338.5,197.5C 342.833,193.833 346.833,189.833 350.5,185.5 Z"/></g>
<g><path style="opacity:0.022" fill="#43443f" d="M 511.5,185.5 C 511.5,187.167 511.5,188.833 511.5,190.5C 502.5,199.167 493.5,207.833 484.5,216.5C 483.5,216.167 482.833,215.5 482.5,214.5C 491.833,204.5 501.5,194.833 511.5,185.5 Z"/></g>
<g><path style="opacity:0.022" fill="#43443f" d="M 154.5,186.5 C 151.167,190.5 147.5,194.167 143.5,197.5C 142.596,196.791 142.263,195.791 142.5,194.5C 144.5,192.167 146.5,189.833 148.5,187.5C 150.379,186.659 152.379,186.325 154.5,186.5 Z"/></g>
<g><path style="opacity:0.022" fill="#444440" d="M 367.5,188.5 C 368.5,188.5 369.5,188.5 370.5,188.5C 370.567,189.959 370.234,191.292 369.5,192.5C 362.167,199.5 354.833,206.5 347.5,213.5C 346.094,213.027 345.427,212.027 345.5,210.5C 353.167,203.5 360.5,196.167 367.5,188.5 Z"/></g>
<g><path style="opacity:0.022" fill="#444440" d="M 306.5,189.5 C 307.401,190.29 308.068,191.29 308.5,192.5C 297.5,203.833 286.5,215.167 275.5,226.5C 274.29,226.068 273.29,225.401 272.5,224.5C 283.833,212.833 295.167,201.167 306.5,189.5 Z"/></g>
<g><path style="opacity:0.022" fill="#444440" d="M 399.5,196.5 C 400.833,196.833 402.167,197.167 403.5,197.5C 397.5,204.167 391.167,210.5 384.5,216.5C 385.501,213.828 386.501,211.162 387.5,208.5C 391.833,204.833 395.833,200.833 399.5,196.5 Z"/></g>
<g><path style="opacity:0.022" fill="#434440" d="M 119.5,197.5 C 120.404,198.209 120.737,199.209 120.5,200.5C 94.8333,226.833 68.8333,252.833 42.5,278.5C 41.5987,277.71 40.9321,276.71 40.5,275.5C 66.8333,249.5 93.1667,223.5 119.5,197.5 Z"/></g>
<g><path style="opacity:0.022" fill="#43443f" d="M 100.5,200.5 C 78.8333,222.833 56.8333,244.833 34.5,266.5C 33.5987,265.71 32.9321,264.71 32.5,263.5C 52.8333,243.833 72.8333,223.833 92.5,203.5C 93.1667,203.5 93.5,203.167 93.5,202.5C 95.7014,201.434 98.0347,200.767 100.5,200.5 Z"/></g>
<g><path style="opacity:0.022" fill="#434440" d="M 414.5,201.5 C 416.153,201.66 417.486,202.326 418.5,203.5C 402.833,218.833 387.167,234.167 371.5,249.5C 371.833,248.167 372.167,246.833 372.5,245.5C 373.167,244.167 373.833,242.833 374.5,241.5C 375.167,241.5 375.5,241.167 375.5,240.5C 388.833,227.833 401.833,214.833 414.5,201.5 Z"/></g>
<g><path style="opacity:0.022" fill="#43443f" d="M 314.5,202.5 C 315.167,203.167 315.833,203.833 316.5,204.5C 316.5,204.833 316.5,205.167 316.5,205.5C 305.833,215.5 295.5,225.833 285.5,236.5C 284.599,235.71 283.932,234.71 283.5,233.5C 293.5,222.833 303.833,212.5 314.5,202.5 Z"/></g>
<g><path style="opacity:0.022" fill="#444440" d="M 511.5,205.5 C 511.5,207.167 511.5,208.833 511.5,210.5C 505.167,216.167 499.167,222.167 493.5,228.5C 492.599,227.71 491.932,226.71 491.5,225.5C 497.833,218.5 504.5,211.833 511.5,205.5 Z"/></g>
<g><path style="opacity:0.022" fill="#444440" d="M 428.5,207.5 C 429.959,207.433 431.292,207.766 432.5,208.5C 413.167,228.5 393.5,248.167 373.5,267.5C 372.766,266.292 372.433,264.959 372.5,263.5C 391.5,245.167 410.167,226.5 428.5,207.5 Z"/></g>
<g><path style="opacity:0.022" fill="#43443f" d="M 124.5,212.5 C 125.404,213.209 125.737,214.209 125.5,215.5C 101.833,239.833 77.8333,263.833 53.5,287.5C 52.2905,287.068 51.2905,286.401 50.5,285.5C 75.1667,261.167 99.8333,236.833 124.5,212.5 Z"/></g>
<g><path style="opacity:0.022" fill="#444441" d="M 163.5,213.5 C 162.358,217.117 160.692,220.45 158.5,223.5C 157.833,223.5 157.5,223.833 157.5,224.5C 156.5,225.167 155.5,225.833 154.5,226.5C 153.833,225.833 153.167,225.167 152.5,224.5C 152.5,224.167 152.5,223.833 152.5,223.5C 156.167,220.167 159.833,216.833 163.5,213.5 Z"/></g>
<g><path style="opacity:0.022" fill="#434440" d="M 321.5,214.5 C 322.906,214.973 323.573,215.973 323.5,217.5C 312.833,228.833 301.833,239.833 290.5,250.5C 289.766,249.292 289.433,247.959 289.5,246.5C 300.5,236.167 311.167,225.5 321.5,214.5 Z"/></g>
<g><path style="opacity:0.022" fill="#444440" d="M 442.5,213.5 C 443.71,213.932 444.71,214.599 445.5,215.5C 423.833,237.833 401.833,259.833 379.5,281.5C 378.766,280.292 378.433,278.959 378.5,277.5C 400.167,256.5 421.5,235.167 442.5,213.5 Z"/></g>
<g><path style="opacity:0.022" fill="#444440" d="M 64.5,216.5 C 54.1667,227.5 43.5,238.167 32.5,248.5C 32.8925,246.716 33.5592,245.05 34.5,243.5C 35.2485,241.668 36.2485,240.001 37.5,238.5C 38.1667,238.5 38.5,238.167 38.5,237.5C 39.1667,237.5 39.5,237.167 39.5,236.5C 40.1667,236.5 40.5,236.167 40.5,235.5C 41.1667,235.5 41.5,235.167 41.5,234.5C 42.8333,233.833 43.8333,232.833 44.5,231.5C 45.1667,231.5 45.5,231.167 45.5,230.5C 46.1667,230.5 46.5,230.167 46.5,229.5C 47.1667,229.5 47.5,229.167 47.5,228.5C 48.1667,228.5 48.5,228.167 48.5,227.5C 49.1667,227.5 49.5,227.167 49.5,226.5C 50.1667,226.5 50.5,226.167 50.5,225.5C 51.1667,225.5 51.5,225.167 51.5,224.5C 54.205,222.488 56.8717,220.488 59.5,218.5C 61.0495,217.559 62.7162,216.893 64.5,216.5 Z"/></g>
<g><path style="opacity:0.022" fill="#43443f" d="M 360.5,216.5 C 360.122,218.921 359.455,221.254 358.5,223.5C 357.833,223.5 357.5,223.833 357.5,224.5C 356.5,225.167 355.5,225.833 354.5,226.5C 353.599,225.71 352.932,224.71 352.5,223.5C 355.167,221.167 357.833,218.833 360.5,216.5 Z"/></g>
<g><path style="opacity:0.988" fill="#50a9c3" d="M 256.5,220.5 C 258.167,220.5 259.833,220.5 261.5,220.5C 265.133,221.262 268.466,222.596 271.5,224.5C 265.833,230.5 260.167,236.5 254.5,242.5C 254.167,242.5 253.833,242.5 253.5,242.5C 247.5,243.833 243.833,247.5 242.5,253.5C 242.5,253.833 242.5,254.167 242.5,254.5C 237.035,259.464 231.702,264.63 226.5,270C 225.552,270.483 224.552,270.649 223.5,270.5C 222.346,267.548 221.346,264.548 220.5,261.5C 220.5,259.833 220.5,258.167 220.5,256.5C 220.413,249.85 221.747,243.516 224.5,237.5C 225.167,237.5 225.5,237.167 225.5,236.5C 226.167,236.5 226.5,236.167 226.5,235.5C 229.167,232.167 232.167,229.167 235.5,226.5C 236.167,226.5 236.5,226.167 236.5,225.5C 237.167,225.5 237.5,225.167 237.5,224.5C 243.516,221.747 249.85,220.413 256.5,220.5 Z"/></g>
<g><path style="opacity:0.022" fill="#43443f" d="M 454.5,221.5 C 456.027,221.427 457.027,222.094 457.5,223.5C 433.833,247.833 409.833,271.833 385.5,295.5C 384.599,294.71 383.932,293.71 383.5,292.5C 407.5,269.167 431.167,245.5 454.5,221.5 Z"/></g>
<g><path style="opacity:0.022" fill="#43443f" d="M 511.5,225.5 C 511.5,227.167 511.5,228.833 511.5,230.5C 507.5,234.167 503.5,237.833 499.5,241.5C 498.766,240.292 498.433,238.959 498.5,237.5C 502.833,233.5 507.167,229.5 511.5,225.5 Z"/></g>
<g><path style="opacity:0.022" fill="#43443f" d="M 130.5,226.5 C 130.833,227.833 131.167,229.167 131.5,230.5C 109.5,251.833 87.8333,273.5 66.5,295.5C 65.1667,295.167 63.8333,294.833 62.5,294.5C 62.5,294.167 62.5,293.833 62.5,293.5C 85.1667,271.167 107.833,248.833 130.5,226.5 Z"/></g>
<g><path style="opacity:0.022" fill="#444440" d="M 329.5,227.5 C 330.11,228.391 330.443,229.391 330.5,230.5C 315.5,246.167 300.167,261.5 284.5,276.5C 285.561,273.378 286.895,270.378 288.5,267.5C 289.167,267.5 289.5,267.167 289.5,266.5C 302.833,253.5 316.167,240.5 329.5,227.5 Z"/></g>
<g><path style="opacity:0.984" fill="#50a8c2" d="M 458.5,197.5 C 458.833,197.5 459.167,197.5 459.5,197.5C 459.973,198.906 460.973,199.573 462.5,199.5C 465.291,201.735 468.291,203.735 471.5,205.5C 471.973,206.906 472.973,207.573 474.5,207.5C 476.549,210.55 479.216,212.883 482.5,214.5C 482.833,215.5 483.5,216.167 484.5,216.5C 486.482,219.81 488.815,222.81 491.5,225.5C 491.932,226.71 492.599,227.71 493.5,228.5C 494.929,231.696 496.595,234.696 498.5,237.5C 498.433,238.959 498.766,240.292 499.5,241.5C 499.5,241.833 499.5,242.167 499.5,242.5C 492.453,249.216 485.453,255.883 478.5,262.5C 479.301,260.958 479.634,259.292 479.5,257.5C 480.035,252.688 479.035,248.355 476.5,244.5C 476.443,243.391 476.11,242.391 475.5,241.5C 473.883,238.216 471.55,235.549 468.5,233.5C 468.5,231.5 467.5,230.5 465.5,230.5C 463.451,227.45 460.784,225.117 457.5,223.5C 457.027,222.094 456.027,221.427 454.5,221.5C 451.709,219.265 448.709,217.265 445.5,215.5C 444.71,214.599 443.71,213.932 442.5,213.5C 448.14,208.527 453.473,203.194 458.5,197.5 Z"/></g>
<g><path style="opacity:0.022" fill="#434440" d="M 465.5,230.5 C 467.5,230.5 468.5,231.5 468.5,233.5C 442.5,259.167 416.5,284.833 390.5,310.5C 389.596,309.791 389.263,308.791 389.5,307.5C 414.833,281.833 440.167,256.167 465.5,230.5 Z"/></g>
<g><path style="opacity:0.98" fill="#50a7c2" d="M 271.5,224.5 C 271.833,224.5 272.167,224.5 272.5,224.5C 273.29,225.401 274.29,226.068 275.5,226.5C 278.167,228.833 280.833,231.167 283.5,233.5C 283.932,234.71 284.599,235.71 285.5,236.5C 287.384,239.603 288.718,242.937 289.5,246.5C 289.433,247.959 289.766,249.292 290.5,250.5C 290.608,255.87 290.275,261.203 289.5,266.5C 288.833,266.5 288.5,266.833 288.5,267.5C 286.895,270.378 285.561,273.378 284.5,276.5C 282.167,279.5 279.5,282.167 276.5,284.5C 273.378,285.561 270.378,286.895 267.5,288.5C 266.833,288.5 266.5,288.833 266.5,289.5C 261.195,290.194 255.862,290.528 250.5,290.5C 249.292,289.766 247.959,289.433 246.5,289.5C 243.082,288.361 239.749,287.028 236.5,285.5C 235.71,284.599 234.71,283.932 233.5,283.5C 231.167,280.833 228.833,278.167 226.5,275.5C 226.068,274.29 225.401,273.29 224.5,272.5C 224.167,271.833 223.833,271.167 223.5,270.5C 224.552,270.649 225.552,270.483 226.5,270C 231.702,264.63 237.035,259.464 242.5,254.5C 242.5,255.833 242.5,257.167 242.5,258.5C 243.459,262.446 245.792,265.113 249.5,266.5C 250.287,268.104 251.62,268.771 253.5,268.5C 263.5,268.5 268.5,263.5 268.5,253.5C 268.771,251.62 268.104,250.287 266.5,249.5C 265.113,245.792 262.446,243.459 258.5,242.5C 257.167,242.5 255.833,242.5 254.5,242.5C 260.167,236.5 265.833,230.5 271.5,224.5 Z"/></g>
<g><path style="opacity:0.022" fill="#434440" d="M 135.5,240.5 C 136.674,241.514 137.34,242.847 137.5,244.5C 117.833,263.5 98.5,282.833 79.5,302.5C 77.847,302.34 76.5137,301.674 75.5,300.5C 95.8333,280.833 115.833,260.833 135.5,240.5 Z"/></g>
<g><path style="opacity:0.022" fill="#43443f" d="M 336.5,240.5 C 337.11,241.391 337.443,242.391 337.5,243.5C 307.833,273.5 278.167,303.5 248.5,333.5C 246.833,333.5 245.167,333.5 243.5,333.5C 274.167,302.167 305.167,271.167 336.5,240.5 Z"/></g>
<g><path style="opacity:0.022" fill="#444440" d="M 475.5,241.5 C 476.11,242.391 476.443,243.391 476.5,244.5C 454.833,266.5 433.167,288.5 411.5,310.5C 408.838,311.499 406.172,312.499 403.5,313.5C 427.167,289.167 451.167,265.167 475.5,241.5 Z"/></g>
<g><path style="opacity:0.022" fill="#43443f" d="M 253.5,242.5 C 253.833,242.5 254.167,242.5 254.5,242.5C 255.833,242.5 257.167,242.5 258.5,242.5C 253.5,248.167 248.167,253.5 242.5,258.5C 242.5,257.167 242.5,255.833 242.5,254.5C 242.5,254.167 242.5,253.833 242.5,253.5C 246.5,250.167 250.167,246.5 253.5,242.5 Z"/></g>
<g><path style="opacity:0.989" fill="#50a9c4" d="M 499.5,242.5 C 501,246.326 501.666,250.326 501.5,254.5C 501.5,254.833 501.5,255.167 501.5,255.5C 477.449,278.55 454.116,302.217 431.5,326.5C 430.609,327.11 429.609,327.443 428.5,327.5C 427.833,327.5 427.5,327.833 427.5,328.5C 421.013,331.076 414.346,333.076 407.5,334.5C 420.243,321.426 432.909,308.426 445.5,295.5C 446.167,295.167 446.833,294.833 447.5,294.5C 448.167,294.5 448.5,294.167 448.5,293.5C 449.167,293.5 449.5,293.167 449.5,292.5C 458.622,287.89 466.455,281.557 473,273.5C 475.038,270.757 476.538,267.757 477.5,264.5C 478.167,264.5 478.5,264.167 478.5,263.5C 478.5,263.167 478.5,262.833 478.5,262.5C 485.453,255.883 492.453,249.216 499.5,242.5 Z"/></g>
<g><path style="opacity:0.022" fill="#43443f" d="M 511.5,245.5 C 511.5,247.167 511.5,248.833 511.5,250.5C 508.167,253.5 504.833,256.5 501.5,259.5C 501.5,258.167 501.5,256.833 501.5,255.5C 501.5,255.167 501.5,254.833 501.5,254.5C 504.833,251.5 508.167,248.5 511.5,245.5 Z"/></g>
<g><path style="opacity:0.022" fill="#444441" d="M 10.5,246.5 C 9.85048,248.435 9.51715,250.435 9.5,252.5C 6.16667,255.5 2.83333,258.5 -0.5,261.5C -0.5,259.833 -0.5,258.167 -0.5,256.5C 3.16667,253.167 6.83333,249.833 10.5,246.5 Z"/></g>
<g><path style="opacity:0.022" fill="#444541" d="M 266.5,249.5 C 268.104,250.287 268.771,251.62 268.5,253.5C 263.167,258.167 258.167,263.167 253.5,268.5C 251.62,268.771 250.287,268.104 249.5,266.5C 255.5,261.167 261.167,255.5 266.5,249.5 Z"/></g>
<g><path style="opacity:0.022" fill="#43443f" d="M 342.5,253.5 C 343.672,255.877 343.339,258.21 341.5,260.5C 340.833,260.5 340.5,260.833 340.5,261.5C 316.167,285.167 292.167,309.167 268.5,333.5C 266.833,333.5 265.167,333.5 263.5,333.5C 289.833,306.833 316.167,280.167 342.5,253.5 Z"/></g>
<g><path style="opacity:0.022" fill="#444440" d="M 141.5,254.5 C 142.521,256.523 142.188,258.523 140.5,260.5C 140.167,261.167 139.833,261.833 139.5,262.5C 138.833,262.5 138.5,262.833 138.5,263.5C 123.167,278.167 108.167,293.167 93.5,308.5C 91.847,308.34 90.5137,307.674 89.5,306.5C 107.167,289.5 124.5,272.167 141.5,254.5 Z"/></g>
<g><path style="opacity:0.986" fill="#50a7c2" d="M 372.5,245.5 C 372.167,246.833 371.833,248.167 371.5,249.5C 367.864,254.328 368.197,258.995 372.5,263.5C 372.433,264.959 372.766,266.292 373.5,267.5C 375.181,270.907 376.847,274.241 378.5,277.5C 378.433,278.959 378.766,280.292 379.5,281.5C 381.109,285.054 382.442,288.721 383.5,292.5C 383.932,293.71 384.599,294.71 385.5,295.5C 386.261,299.784 387.595,303.784 389.5,307.5C 389.263,308.791 389.596,309.791 390.5,310.5C 390.5,310.833 390.5,311.167 390.5,311.5C 378.113,322.886 366.447,334.886 355.5,347.5C 354.833,347.5 354.167,347.5 353.5,347.5C 351.565,348.15 349.565,348.483 347.5,348.5C 341.5,349.5 335.5,350.5 329.5,351.5C 328.167,351.5 326.833,351.5 325.5,351.5C 333.557,343.447 341.223,335.113 348.5,326.5C 349.609,326.443 350.609,326.11 351.5,325.5C 353.621,325.675 355.621,325.341 357.5,324.5C 361.833,323.833 366.167,323.167 370.5,322.5C 370.072,319.215 369.072,316.215 367.5,313.5C 367.737,312.209 367.404,311.209 366.5,310.5C 365.541,306.617 364.208,302.95 362.5,299.5C 362.567,298.041 362.234,296.708 361.5,295.5C 360.072,291.65 358.406,287.983 356.5,284.5C 356.649,283.448 356.483,282.448 356,281.5C 354.295,283.577 353.128,285.91 352.5,288.5C 350.774,290.228 349.441,292.228 348.5,294.5C 325.418,316.08 302.751,338.247 280.5,361C 279.906,361.464 279.239,361.631 278.5,361.5C 280.002,359.825 281.335,357.992 282.5,356C 281.906,355.536 281.239,355.369 280.5,355.5C 275.5,355.5 270.5,355.5 265.5,355.5C 263.833,355.5 262.167,355.5 260.5,355.5C 255.5,355.5 250.5,355.5 245.5,355.5C 244.167,355.5 242.833,355.5 241.5,355.5C 248.558,348.446 255.225,341.112 261.5,333.5C 262.167,333.5 262.833,333.5 263.5,333.5C 265.167,333.5 266.833,333.5 268.5,333.5C 273.5,333.5 278.5,333.5 283.5,333.5C 285.621,333.675 287.621,333.341 289.5,332.5C 292.85,332.665 296.183,332.498 299.5,332C 305.481,323.865 310.814,315.365 315.5,306.5C 316.167,306.5 316.5,306.167 316.5,305.5C 317.167,305.5 317.5,305.167 317.5,304.5C 319.766,300.966 321.766,297.3 323.5,293.5C 325.167,290.833 326.833,288.167 328.5,285.5C 329.922,285.291 331.255,284.791 332.5,284C 345.419,270.578 358.753,257.744 372.5,245.5 Z M 356.5,284.5 C 358.406,287.983 360.072,291.65 361.5,295.5C 351.5,305.167 341.5,314.833 331.5,324.5C 337.155,314.527 342.821,304.527 348.5,294.5C 349.441,292.228 350.774,290.228 352.5,288.5C 354.167,287.5 355.5,286.167 356.5,284.5 Z M 362.5,299.5 C 364.208,302.95 365.541,306.617 366.5,310.5C 361.167,315.167 356.167,320.167 351.5,325.5C 350.609,326.11 349.609,326.443 348.5,326.5C 343.53,327.353 338.53,328.02 333.5,328.5C 342.833,318.5 352.5,308.833 362.5,299.5 Z M 367.5,313.5 C 369.072,316.215 370.072,319.215 370.5,322.5C 366.167,323.167 361.833,323.833 357.5,324.5C 360.833,320.833 364.167,317.167 367.5,313.5 Z"/></g>
<g><path style="opacity:0.994" fill="#50a7c2" d="M 189.5,213.5 C 183.979,222.542 178.979,231.876 174.5,241.5C 173.833,241.5 173.5,241.833 173.5,242.5C 171.895,245.378 170.561,248.378 169.5,251.5C 168.418,252.594 167.752,253.927 167.5,255.5C 168.57,258.639 169.904,261.639 171.5,264.5C 171.932,265.71 172.599,266.71 173.5,267.5C 173.5,267.833 173.5,268.167 173.5,268.5C 167.833,273.5 162.5,278.833 157.5,284.5C 157.167,284.5 156.833,284.5 156.5,284.5C 156.539,283.244 156.039,282.244 155,281.5C 154.153,283.854 153.32,286.188 152.5,288.5C 149.108,296.34 146.108,304.34 143.5,312.5C 142.434,314.701 141.767,317.035 141.5,319.5C 139.863,321.124 140.197,322.124 142.5,322.5C 145.82,323.297 149.154,323.964 152.5,324.5C 153.609,324.557 154.609,324.89 155.5,325.5C 149.833,331.5 144.167,337.5 138.5,343.5C 138.167,343.5 137.833,343.5 137.5,343.5C 136.167,343.5 134.833,343.5 133.5,343.5C 133.5,344.833 133.5,346.167 133.5,347.5C 132.89,348.391 132.557,349.391 132.5,350.5C 123.588,357.907 115.088,365.907 107,374.5C 106.79,376.058 106.29,377.391 105.5,378.5C 105.5,377.833 105.5,377.167 105.5,376.5C 105.517,374.435 105.85,372.435 106.5,370.5C 107.069,364.418 108.069,358.418 109.5,352.5C 110.15,350.565 110.483,348.565 110.5,346.5C 111.634,343.63 112.3,340.63 112.5,337.5C 110.035,337.233 107.701,336.566 105.5,335.5C 104.167,335.167 102.833,334.833 101.5,334.5C 107.806,328.86 113.806,322.86 119.5,316.5C 121.297,309.774 123.297,303.108 125.5,296.5C 126.892,293.993 127.892,291.327 128.5,288.5C 132.107,280.284 135.441,271.95 138.5,263.5C 139.167,263.5 139.5,263.167 139.5,262.5C 139.833,261.833 140.167,261.167 140.5,260.5C 156.251,245.25 171.917,229.75 187.5,214C 188.094,213.536 188.761,213.369 189.5,213.5 Z"/></g>
<g><path style="opacity:0.022" fill="#43443f" d="M 220.5,256.5 C 220.5,258.167 220.5,259.833 220.5,261.5C 209.5,272.167 198.5,282.833 187.5,293.5C 186.599,292.71 185.932,291.71 185.5,290.5C 197.167,279.167 208.833,267.833 220.5,256.5 Z"/></g>
<g><path style="opacity:0.022" fill="#444440" d="M 479.5,257.5 C 479.634,259.292 479.301,260.958 478.5,262.5C 478.5,262.833 478.5,263.167 478.5,263.5C 477.833,263.5 477.5,263.833 477.5,264.5C 467.833,273.5 458.5,282.833 449.5,292.5C 448.833,292.5 448.5,292.833 448.5,293.5C 447.833,293.5 447.5,293.833 447.5,294.5C 446.833,294.833 446.167,295.167 445.5,295.5C 443.117,297.358 440.45,298.692 437.5,299.5C 451.167,285.167 465.167,271.167 479.5,257.5 Z"/></g>
<g><path style="opacity:0.984" fill="#50a7c2" d="M 501.5,255.5 C 501.5,256.833 501.5,258.167 501.5,259.5C 500.368,267.228 498.035,274.561 494.5,281.5C 493.833,281.5 493.5,281.833 493.5,282.5C 487.167,292.167 479.167,300.167 469.5,306.5C 468.833,306.5 468.5,306.833 468.5,307.5C 467.833,307.5 467.5,307.833 467.5,308.5C 457.146,314.678 446.479,320.345 435.5,325.5C 434.041,325.433 432.708,325.766 431.5,326.5C 454.116,302.217 477.449,278.55 501.5,255.5 Z"/></g>
<g><path style="opacity:0.022" fill="#444440" d="M 511.5,265.5 C 511.5,267.167 511.5,268.833 511.5,270.5C 476.167,305.5 440.833,340.5 405.5,375.5C 405.737,374.209 405.404,373.209 404.5,372.5C 404.5,372.167 404.5,371.833 404.5,371.5C 425.833,350.833 446.833,329.833 467.5,308.5C 468.167,308.5 468.5,308.167 468.5,307.5C 469.167,307.5 469.5,307.167 469.5,306.5C 479.167,300.167 487.167,292.167 493.5,282.5C 494.167,282.5 494.5,282.167 494.5,281.5C 500.167,276.167 505.833,270.833 511.5,265.5 Z"/></g>
<g><path style="opacity:0.022" fill="#43443f" d="M 10.5,266.5 C 11.2341,267.708 11.5674,269.041 11.5,270.5C 7.5,274.167 3.5,277.833 -0.5,281.5C -0.5,279.833 -0.5,278.167 -0.5,276.5C 3.16667,273.167 6.83333,269.833 10.5,266.5 Z"/></g>
<g><path style="opacity:0.022" fill="#444440" d="M 224.5,272.5 C 225.401,273.29 226.068,274.29 226.5,275.5C 215.833,285.5 205.5,295.833 195.5,306.5C 194.094,306.027 193.427,305.027 193.5,303.5C 203.5,292.833 213.833,282.5 224.5,272.5 Z"/></g>
<g><path style="opacity:0.022" fill="#444440" d="M 16.5,280.5 C 17.1667,281.5 17.8333,282.5 18.5,283.5C 12.1667,289.5 5.83333,295.5 -0.5,301.5C -0.5,299.833 -0.5,298.167 -0.5,296.5C 5.16667,291.167 10.8333,285.833 16.5,280.5 Z"/></g>
<g><path style="opacity:0.99" fill="#50a8c2" d="M 34.5,243.5 C 33.5592,245.05 32.8925,246.716 32.5,248.5C 31.2171,253.469 31.2171,258.469 32.5,263.5C 32.9321,264.71 33.5987,265.71 34.5,266.5C 35.7232,270.049 37.7232,273.049 40.5,275.5C 40.9321,276.71 41.5987,277.71 42.5,278.5C 45.1413,280.804 47.808,283.138 50.5,285.5C 51.2905,286.401 52.2905,287.068 53.5,287.5C 56.2911,289.735 59.2911,291.735 62.5,293.5C 62.5,293.833 62.5,294.167 62.5,294.5C 57.1667,299.5 51.8333,304.5 46.5,309.5C 43.328,307.748 40.328,305.748 37.5,303.5C 36.5,302.833 35.5,302.167 34.5,301.5C 31.8739,299.177 29.2072,296.843 26.5,294.5C 26.0679,293.29 25.4013,292.29 24.5,291.5C 22.1153,289.116 20.1153,286.45 18.5,283.5C 17.8333,282.5 17.1667,281.5 16.5,280.5C 14.8007,277.101 13.134,273.768 11.5,270.5C 11.5674,269.041 11.2341,267.708 10.5,266.5C 10.5,266.167 10.5,265.833 10.5,265.5C 18.2203,257.776 26.2203,250.443 34.5,243.5 Z"/></g>
<g><path style="opacity:0.022" fill="#454543" d="M 156.5,284.5 C 155.5,286.167 154.167,287.5 152.5,288.5C 153.32,286.188 154.153,283.854 155,281.5C 156.039,282.244 156.539,283.244 156.5,284.5 Z"/></g>
<g><path style="opacity:0.022" fill="#454443" d="M 356.5,284.5 C 355.5,286.167 354.167,287.5 352.5,288.5C 353.128,285.91 354.295,283.577 356,281.5C 356.483,282.448 356.649,283.448 356.5,284.5 Z"/></g>
<g><path style="opacity:0.022" fill="#43443f" d="M 233.5,283.5 C 234.71,283.932 235.71,284.599 236.5,285.5C 225.167,296.5 213.833,307.5 202.5,318.5C 201.599,317.71 200.932,316.71 200.5,315.5C 211.5,304.833 222.5,294.167 233.5,283.5 Z"/></g>
<g><path style="opacity:0.022" fill="#444440" d="M 276.5,284.5 C 260.5,300.833 244.5,317.167 228.5,333.5C 226.585,333.784 224.919,333.451 223.5,332.5C 238.167,318.5 252.5,304.167 266.5,289.5C 267.167,289.5 267.5,289.167 267.5,288.5C 270.378,286.895 273.378,285.561 276.5,284.5 Z"/></g>
<g><path style="opacity:0.022" fill="#43443f" d="M 511.5,285.5 C 511.5,287.167 511.5,288.833 511.5,290.5C 476.5,325.167 441.5,359.833 406.5,394.5C 406.5,392.833 406.5,391.167 406.5,389.5C 441.5,354.833 476.5,320.167 511.5,285.5 Z"/></g>
<g><path style="opacity:0.022" fill="#43443f" d="M 128.5,288.5 C 127.892,291.327 126.892,293.993 125.5,296.5C 119.5,301.833 113.833,307.5 108.5,313.5C 107.167,313.167 105.833,312.833 104.5,312.5C 112.167,304.167 120.167,296.167 128.5,288.5 Z"/></g>
<g><path style="opacity:0.022" fill="#43443f" d="M 246.5,289.5 C 247.959,289.433 249.292,289.766 250.5,290.5C 237.5,304.167 224.167,317.5 210.5,330.5C 209.599,329.71 208.932,328.71 208.5,327.5C 221.5,315.167 234.167,302.5 246.5,289.5 Z"/></g>
<g><path style="opacity:0.022" fill="#434440" d="M 24.5,291.5 C 25.4013,292.29 26.0679,293.29 26.5,294.5C 17.8333,303.833 8.83333,312.833 -0.5,321.5C -0.5,319.833 -0.5,318.167 -0.5,316.5C 8.16667,308.5 16.5,300.167 24.5,291.5 Z"/></g>
<g><path style="opacity:0.022" fill="#43443f" d="M 323.5,293.5 C 321.766,297.3 319.766,300.966 317.5,304.5C 316.833,304.5 316.5,304.833 316.5,305.5C 315.833,305.5 315.5,305.833 315.5,306.5C 306.5,314.833 297.833,323.5 289.5,332.5C 287.621,333.341 285.621,333.675 283.5,333.5C 296.5,319.833 309.833,306.5 323.5,293.5 Z"/></g>
<g><path style="opacity:0.022" fill="#43443f" d="M 162.5,294.5 C 163.11,295.391 163.443,296.391 163.5,297.5C 156.5,305.167 149.167,312.5 141.5,319.5C 141.767,317.035 142.434,314.701 143.5,312.5C 149.833,306.5 156.167,300.5 162.5,294.5 Z"/></g>
<g><path style="opacity:0.022" fill="#43443f" d="M 361.5,295.5 C 362.234,296.708 362.567,298.041 362.5,299.5C 352.5,308.833 342.833,318.5 333.5,328.5C 332.508,328.328 331.842,328.662 331.5,329.5C 330.325,329.719 329.325,329.386 328.5,328.5C 329.193,327.482 329.859,326.482 330.5,325.5C 331.167,325.5 331.5,325.167 331.5,324.5C 341.5,314.833 351.5,305.167 361.5,295.5 Z"/></g>
<g><path style="opacity:0.987" fill="#50a8c2" d="M 62.5,294.5 C 63.8333,294.833 65.1667,295.167 66.5,295.5C 69.0078,297.924 72.0078,299.59 75.5,300.5C 76.5137,301.674 77.847,302.34 79.5,302.5C 82.6035,304.384 85.9368,305.718 89.5,306.5C 90.5137,307.674 91.847,308.34 93.5,308.5C 97.1667,309.833 100.833,311.167 104.5,312.5C 105.833,312.833 107.167,313.167 108.5,313.5C 112.019,314.964 115.686,315.964 119.5,316.5C 113.806,322.86 107.806,328.86 101.5,334.5C 97.7715,333.319 94.1049,331.985 90.5,330.5C 89.1667,330.167 87.8333,329.833 86.5,329.5C 82.9795,327.771 79.3128,326.438 75.5,325.5C 74.7095,324.599 73.7095,323.932 72.5,323.5C 69.1711,322.169 65.8377,320.836 62.5,319.5C 61.4863,318.326 60.153,317.66 58.5,317.5C 55.9922,315.076 52.9922,313.41 49.5,312.5C 49.0269,311.094 48.0269,310.427 46.5,310.5C 46.5,310.167 46.5,309.833 46.5,309.5C 51.8333,304.5 57.1667,299.5 62.5,294.5 Z"/></g>
<g><path style="opacity:0.993" fill="#50a8c3" d="M 348.5,294.5 C 342.821,304.527 337.155,314.527 331.5,324.5C 330.833,324.5 330.5,324.833 330.5,325.5C 329.859,326.482 329.193,327.482 328.5,328.5C 329.325,329.386 330.325,329.719 331.5,329.5C 288.535,372.965 245.368,416.299 202,459.5C 201.536,460.094 201.369,460.761 201.5,461.5C 199.537,462.82 197.537,464.154 195.5,465.5C 192.673,466.108 190.007,467.108 187.5,468.5C 186.833,468.5 186.5,468.833 186.5,469.5C 180.643,471.452 174.643,472.785 168.5,473.5C 182.167,459.5 195.833,445.5 209.5,431.5C 212.126,429.177 214.793,426.843 217.5,424.5C 218.167,424.5 218.5,424.167 218.5,423.5C 219.167,423.5 219.5,423.167 219.5,422.5C 220.167,422.5 220.5,422.167 220.5,421.5C 221.167,421.5 221.5,421.167 221.5,420.5C 227.736,416.108 233.57,411.108 239,405.5C 239.692,404.563 239.525,403.897 238.5,403.5C 238.573,401.973 237.906,400.973 236.5,400.5C 234.167,397.833 231.833,395.167 229.5,392.5C 228.833,391.167 227.833,390.167 226.5,389.5C 224.885,386.55 222.885,383.884 220.5,381.5C 219.833,380.5 219.167,379.5 218.5,378.5C 223.528,373.14 228.528,367.807 233.5,362.5C 234.167,363.833 235.167,364.833 236.5,365.5C 238.147,368.473 240.147,371.14 242.5,373.5C 243.167,374.833 244.167,375.833 245.5,376.5C 247.117,379.784 249.45,382.451 252.5,384.5C 252.932,385.71 253.599,386.71 254.5,387.5C 258.5,385.5 261.5,382.5 263.5,378.5C 264.167,378.5 264.5,378.167 264.5,377.5C 265.167,377.5 265.5,377.167 265.5,376.5C 266.167,376.5 266.5,376.167 266.5,375.5C 267.167,375.5 267.5,375.167 267.5,374.5C 268.167,374.5 268.5,374.167 268.5,373.5C 272.21,369.792 275.543,365.792 278.5,361.5C 279.239,361.631 279.906,361.464 280.5,361C 302.751,338.247 325.418,316.08 348.5,294.5 Z M 263.5,378.5 C 261.5,382.5 258.5,385.5 254.5,387.5C 257.167,384.167 260.167,381.167 263.5,378.5 Z"/></g>
<g><path style="opacity:0.022" fill="#43443f" d="M 34.5,301.5 C 35.5,302.167 36.5,302.833 37.5,303.5C 25.1667,316.5 12.5,329.167 -0.5,341.5C -0.5,339.833 -0.5,338.167 -0.5,336.5C 11.5,325.167 23.1667,313.5 34.5,301.5 Z"/></g>
<g><path style="opacity:0.992" fill="#50a8c2" d="M 445.5,295.5 C 432.909,308.426 420.243,321.426 407.5,334.5C 406.71,335.401 405.71,336.068 404.5,336.5C 399.875,335.895 398.208,337.561 399.5,341.5C 399.882,346.092 400.882,350.425 402.5,354.5C 402.5,355.833 402.5,357.167 402.5,358.5C 403.702,362.714 404.369,367.048 404.5,371.5C 404.5,371.833 404.5,372.167 404.5,372.5C 398.702,377.797 393.035,383.297 387.5,389C 386.552,389.483 385.552,389.649 384.5,389.5C 384.677,385.766 384.344,382.099 383.5,378.5C 383.5,376.833 383.5,375.167 383.5,373.5C 382.706,369.361 381.706,365.361 380.5,361.5C 380.784,359.585 380.451,357.919 379.5,356.5C 379.152,352.443 378.486,348.443 377.5,344.5C 375.611,343.258 373.611,343.258 371.5,344.5C 366.12,345.285 360.787,346.285 355.5,347.5C 366.447,334.886 378.113,322.886 390.5,311.5C 391.038,313.117 391.371,314.784 391.5,316.5C 395.584,315.812 399.584,314.812 403.5,313.5C 406.172,312.499 408.838,311.499 411.5,310.5C 420.532,307.603 429.199,303.937 437.5,299.5C 440.45,298.692 443.117,297.358 445.5,295.5 Z"/></g>
<g><path style="opacity:0.022" fill="#43443f" d="M 511.5,305.5 C 511.5,307.167 511.5,308.833 511.5,310.5C 476.5,345.167 441.5,379.833 406.5,414.5C 406.5,412.833 406.5,411.167 406.5,409.5C 441.5,374.833 476.5,340.167 511.5,305.5 Z"/></g>
<g><path style="opacity:0.022" fill="#43443f" d="M 169.5,307.5 C 170.401,308.29 171.068,309.29 171.5,310.5C 166.167,315.167 161.167,320.167 156.5,325.5C 156.167,325.5 155.833,325.5 155.5,325.5C 154.609,324.89 153.609,324.557 152.5,324.5C 157.833,318.5 163.5,312.833 169.5,307.5 Z"/></g>
<g><path style="opacity:0.022" fill="#43443f" d="M 46.5,310.5 C 48.0269,310.427 49.0269,311.094 49.5,312.5C 32.8333,328.833 16.1667,345.167 -0.5,361.5C -0.5,359.833 -0.5,358.167 -0.5,356.5C 15.1667,341.167 30.8333,325.833 46.5,310.5 Z"/></g>
<g><path style="opacity:0.022" fill="#43443f" d="M 366.5,310.5 C 367.404,311.209 367.737,312.209 367.5,313.5C 364.167,317.167 360.833,320.833 357.5,324.5C 355.621,325.341 353.621,325.675 351.5,325.5C 356.167,320.167 361.167,315.167 366.5,310.5 Z"/></g>
<g><path style="opacity:0.022" fill="#43443f" d="M 58.5,317.5 C 60.153,317.66 61.4863,318.326 62.5,319.5C 41.5,340.167 20.5,360.833 -0.5,381.5C -0.5,379.833 -0.5,378.167 -0.5,376.5C 19.5,357.167 39.1667,337.5 58.5,317.5 Z"/></g>
<g><path style="opacity:0.022" fill="#43443f" d="M 176.5,319.5 C 177.401,320.29 178.068,321.29 178.5,322.5C 176.833,324.5 175.167,326.5 173.5,328.5C 172.292,327.766 170.959,327.433 169.5,327.5C 171.833,324.833 174.167,322.167 176.5,319.5 Z"/></g>
<g><path style="opacity:0.022" fill="#43443f" d="M 72.5,323.5 C 73.7095,323.932 74.7095,324.599 75.5,325.5C 50.5,351.167 25.1667,376.5 -0.5,401.5C -0.5,399.833 -0.5,398.167 -0.5,396.5C 24.1667,372.5 48.5,348.167 72.5,323.5 Z"/></g>
<g><path style="opacity:0.022" fill="#43443f" d="M 435.5,325.5 C 424.833,336.833 413.833,347.833 402.5,358.5C 402.5,357.167 402.5,355.833 402.5,354.5C 410.833,345.833 419.167,337.167 427.5,328.5C 428.167,328.5 428.5,328.167 428.5,327.5C 429.609,327.443 430.609,327.11 431.5,326.5C 432.708,325.766 434.041,325.433 435.5,325.5 Z"/></g>
<g><path style="opacity:0.022" fill="#43443f" d="M 511.5,325.5 C 511.5,327.167 511.5,328.833 511.5,330.5C 474.833,366.833 438.167,403.167 401.5,439.5C 402.167,437.167 402.833,434.833 403.5,432.5C 439.5,396.833 475.5,361.167 511.5,325.5 Z"/></g>
<g><path style="opacity:0.977" fill="#50a8c3" d="M 173.5,268.5 C 174.929,271.696 176.595,274.696 178.5,277.5C 178.427,279.027 179.094,280.027 180.5,280.5C 181.642,284.117 183.308,287.45 185.5,290.5C 185.932,291.71 186.599,292.71 187.5,293.5C 189,297.173 191,300.506 193.5,303.5C 193.427,305.027 194.094,306.027 195.5,306.5C 196.738,309.738 198.404,312.738 200.5,315.5C 200.932,316.71 201.599,317.71 202.5,318.5C 204.265,321.709 206.265,324.709 208.5,327.5C 208.932,328.71 209.599,329.71 210.5,330.5C 210.611,331.117 210.944,331.617 211.5,332C 215.486,332.499 219.486,332.666 223.5,332.5C 224.919,333.451 226.585,333.784 228.5,333.5C 233.5,333.5 238.5,333.5 243.5,333.5C 245.167,333.5 246.833,333.5 248.5,333.5C 252.833,333.5 257.167,333.5 261.5,333.5C 255.225,341.112 248.558,348.446 241.5,355.5C 241.167,355.5 240.833,355.5 240.5,355.5C 236.486,355.334 232.486,355.501 228.5,356C 230.054,358.287 231.721,360.454 233.5,362.5C 228.528,367.807 223.528,373.14 218.5,378.5C 218.167,378.5 217.833,378.5 217.5,378.5C 215.853,375.527 213.853,372.86 211.5,370.5C 211.068,369.29 210.401,368.29 209.5,367.5C 207.397,364.28 205.064,361.28 202.5,358.5C 202.068,357.29 201.401,356.29 200.5,355.5C 200.047,354.542 199.381,353.708 198.5,353C 195.183,352.502 191.85,352.335 188.5,352.5C 187.432,351.566 186.099,351.232 184.5,351.5C 180.072,351.201 175.739,350.535 171.5,349.5C 169.833,349.5 168.167,349.5 166.5,349.5C 162.286,348.298 157.952,347.631 153.5,347.5C 152.432,346.566 151.099,346.232 149.5,346.5C 145.627,345.866 141.961,344.866 138.5,343.5C 144.167,337.5 149.833,331.5 155.5,325.5C 155.833,325.5 156.167,325.5 156.5,325.5C 160.853,326.059 165.186,326.725 169.5,327.5C 170.959,327.433 172.292,327.766 173.5,328.5C 176.627,328.876 179.627,328.876 182.5,328.5C 181.143,326.435 179.81,324.435 178.5,322.5C 178.068,321.29 177.401,320.29 176.5,319.5C 175.099,316.366 173.432,313.366 171.5,310.5C 171.068,309.29 170.401,308.29 169.5,307.5C 167.988,303.799 165.988,300.466 163.5,297.5C 163.443,296.391 163.11,295.391 162.5,294.5C 160.308,291.45 158.642,288.117 157.5,284.5C 162.5,278.833 167.833,273.5 173.5,268.5 Z"/></g>
<g><path style="opacity:0.022" fill="#43443f" d="M 86.5,329.5 C 87.8333,329.833 89.1667,330.167 90.5,330.5C 60.5,361.167 30.1667,391.5 -0.5,421.5C -0.5,419.833 -0.5,418.167 -0.5,416.5C 28.8333,387.833 57.8333,358.833 86.5,329.5 Z"/></g>
<g><path style="opacity:0.022" fill="#43443f" d="M 101.5,334.5 C 102.833,334.833 104.167,335.167 105.5,335.5C 70.5,371.167 35.1667,406.5 -0.5,441.5C -0.5,439.833 -0.5,438.167 -0.5,436.5C 33.8333,402.833 67.8333,368.833 101.5,334.5 Z"/></g>
<g><path style="opacity:0.022" fill="#444442" d="M 404.5,336.5 C 403.167,338.5 401.5,340.167 399.5,341.5C 398.208,337.561 399.875,335.895 404.5,336.5 Z"/></g>
<g><path style="opacity:0.022" fill="#43443f" d="M 137.5,343.5 C 136.5,345.167 135.167,346.5 133.5,347.5C 133.5,346.167 133.5,344.833 133.5,343.5C 134.833,343.5 136.167,343.5 137.5,343.5 Z"/></g>
<g><path style="opacity:0.022" fill="#444440" d="M 377.5,344.5 C 350.167,371.5 322.833,398.5 295.5,425.5C 293.973,425.573 292.973,424.906 292.5,423.5C 319.167,397.5 345.5,371.167 371.5,344.5C 373.611,343.258 375.611,343.258 377.5,344.5 Z"/></g>
<g><path style="opacity:0.022" fill="#43443f" d="M 511.5,345.5 C 511.5,347.167 511.5,348.833 511.5,350.5C 457.5,403.833 403.833,457.5 350.5,511.5C 348.833,511.5 347.167,511.5 345.5,511.5C 400.5,455.833 455.833,400.5 511.5,345.5 Z"/></g>
<g><path style="opacity:0.022" fill="#434440" d="M 110.5,346.5 C 110.483,348.565 110.15,350.565 109.5,352.5C 72.8333,388.833 36.1667,425.167 -0.5,461.5C -0.5,459.833 -0.5,458.167 -0.5,456.5C 36.5,419.833 73.5,383.167 110.5,346.5 Z"/></g>
<g><path style="opacity:0.022" fill="#43443f" d="M 149.5,346.5 C 151.099,346.232 152.432,346.566 153.5,347.5C 145.5,356.167 137.167,364.5 128.5,372.5C 128.5,370.833 128.5,369.167 128.5,367.5C 129.167,367.5 129.5,367.167 129.5,366.5C 136.5,360.167 143.167,353.5 149.5,346.5 Z"/></g>
<g><path style="opacity:0.022" fill="#43443f" d="M 353.5,347.5 C 330.833,370.833 307.833,393.833 284.5,416.5C 283.5,416.167 282.833,415.5 282.5,414.5C 304.167,392.5 325.833,370.5 347.5,348.5C 349.565,348.483 351.565,348.15 353.5,347.5 Z"/></g>
<g><path style="opacity:0.022" fill="#43443f" d="M 166.5,349.5 C 168.167,349.5 169.833,349.5 171.5,349.5C 156.5,365.167 141.167,380.5 125.5,395.5C 125.325,393.379 125.659,391.379 126.5,389.5C 140.167,376.5 153.5,363.167 166.5,349.5 Z"/></g>
<g><path style="opacity:0.022" fill="#43443f" d="M 184.5,351.5 C 186.099,351.232 187.432,351.566 188.5,352.5C 168.167,373.5 147.5,394.167 126.5,414.5C 126.567,413.041 126.234,411.708 125.5,410.5C 145.5,391.167 165.167,371.5 184.5,351.5 Z"/></g>
<g><path style="opacity:0.022" fill="#43443f" d="M 324.5,351.5 C 324.833,351.5 325.167,351.5 325.5,351.5C 326.833,351.5 328.167,351.5 329.5,351.5C 311.167,370.167 292.833,388.833 274.5,407.5C 273.5,406.833 272.5,406.167 271.5,405.5C 271.5,405.167 271.5,404.833 271.5,404.5C 272.167,404.5 272.5,404.167 272.5,403.5C 273.167,403.5 273.5,403.167 273.5,402.5C 290.833,385.833 307.833,368.833 324.5,351.5 Z"/></g>
<g><path style="opacity:0.979" fill="#50a8c3" d="M 132.5,350.5 C 130.992,355.708 129.992,361.041 129.5,366.5C 128.833,366.5 128.5,366.833 128.5,367.5C 128.5,369.167 128.5,370.833 128.5,372.5C 127.107,378.038 126.44,383.705 126.5,389.5C 125.659,391.379 125.325,393.379 125.5,395.5C 125.5,400.5 125.5,405.5 125.5,410.5C 126.234,411.708 126.567,413.041 126.5,414.5C 126.909,418.876 127.575,423.21 128.5,427.5C 123.194,433.473 117.527,439.14 111.5,444.5C 110.343,441.016 109.01,437.683 107.5,434.5C 107.768,432.901 107.434,431.568 106.5,430.5C 106.018,426.127 105.352,421.794 104.5,417.5C 104.5,415.833 104.5,414.167 104.5,412.5C 103.771,407.87 103.437,403.203 103.5,398.5C 103.833,396.5 104.167,394.5 104.5,392.5C 104.283,387.77 104.617,383.103 105.5,378.5C 106.29,377.391 106.79,376.058 107,374.5C 115.088,365.907 123.588,357.907 132.5,350.5 Z"/></g>
<g><path style="opacity:0.984" fill="#50a8c3" d="M 348.5,326.5 C 341.223,335.113 333.557,343.447 325.5,351.5C 325.167,351.5 324.833,351.5 324.5,351.5C 320.548,352.196 316.548,352.696 312.5,353C 300.024,369.969 287.024,386.469 273.5,402.5C 272.833,402.5 272.5,402.833 272.5,403.5C 271.833,403.5 271.5,403.833 271.5,404.5C 271.5,404.833 271.5,405.167 271.5,405.5C 266.14,410.528 260.807,415.528 255.5,420.5C 254.833,420.5 254.5,420.833 254.5,421.5C 253.833,421.5 253.5,421.833 253.5,422.5C 252.833,422.5 252.5,422.833 252.5,423.5C 251.833,423.5 251.5,423.833 251.5,424.5C 250.833,424.5 250.5,424.833 250.5,425.5C 249.833,425.5 249.5,425.833 249.5,426.5C 248.833,426.5 248.5,426.833 248.5,427.5C 247.833,427.5 247.5,427.833 247.5,428.5C 246.833,428.5 246.5,428.833 246.5,429.5C 245.833,429.5 245.5,429.833 245.5,430.5C 244.833,430.5 244.5,430.833 244.5,431.5C 237.394,436.762 230.394,442.262 223.5,448C 216.306,452.762 208.973,457.262 201.5,461.5C 201.369,460.761 201.536,460.094 202,459.5C 245.368,416.299 288.535,372.965 331.5,329.5C 331.842,328.662 332.508,328.328 333.5,328.5C 338.53,328.02 343.53,327.353 348.5,326.5 Z"/></g>
<g><path style="opacity:0.022" fill="#43443f" d="M 200.5,355.5 C 201.401,356.29 202.068,357.29 202.5,358.5C 178.5,382.833 154.5,407.167 130.5,431.5C 129.655,430.329 128.989,428.995 128.5,427.5C 152.833,403.833 176.833,379.833 200.5,355.5 Z"/></g>
<g><path style="opacity:0.022" fill="#43443f" d="M 240.5,355.5 C 240.833,355.5 241.167,355.5 241.5,355.5C 242.833,355.5 244.167,355.5 245.5,355.5C 242.5,358.833 239.5,362.167 236.5,365.5C 235.167,364.833 234.167,363.833 233.5,362.5C 236.167,360.5 238.5,358.167 240.5,355.5 Z"/></g>
<g><path style="opacity:0.022" fill="#43443f" d="M 260.5,355.5 C 262.167,355.5 263.833,355.5 265.5,355.5C 258.833,362.5 252.167,369.5 245.5,376.5C 244.167,375.833 243.167,374.833 242.5,373.5C 248.833,367.833 254.833,361.833 260.5,355.5 Z"/></g>
<g><path style="opacity:0.022" fill="#444441" d="M 280.5,355.5 C 281.239,355.369 281.906,355.536 282.5,356C 281.335,357.992 280.002,359.825 278.5,361.5C 275.543,365.792 272.21,369.792 268.5,373.5C 267.833,373.5 267.5,373.833 267.5,374.5C 266.833,374.5 266.5,374.833 266.5,375.5C 265.833,375.5 265.5,375.833 265.5,376.5C 264.833,376.5 264.5,376.833 264.5,377.5C 263.833,377.5 263.5,377.833 263.5,378.5C 260.167,381.167 257.167,384.167 254.5,387.5C 253.599,386.71 252.932,385.71 252.5,384.5C 261.833,374.833 271.167,365.167 280.5,355.5 Z"/></g>
<g><path style="opacity:0.022" fill="#43443f" d="M 379.5,356.5 C 380.451,357.919 380.784,359.585 380.5,361.5C 355.833,385.5 331.5,409.833 307.5,434.5C 306.29,434.068 305.29,433.401 304.5,432.5C 329.5,407.167 354.5,381.833 379.5,356.5 Z"/></g>
<g><path style="opacity:0.022" fill="#43443f" d="M 511.5,365.5 C 511.5,367.167 511.5,368.833 511.5,370.5C 464.167,417.167 417.167,464.167 370.5,511.5C 368.833,511.5 367.167,511.5 365.5,511.5C 413.833,462.5 462.5,413.833 511.5,365.5 Z"/></g>
<g><path style="opacity:0.022" fill="#444440" d="M 209.5,367.5 C 210.401,368.29 211.068,369.29 211.5,370.5C 186.5,394.833 161.833,419.5 137.5,444.5C 136.094,444.027 135.427,443.027 135.5,441.5C 159.833,416.5 184.5,391.833 209.5,367.5 Z"/></g>
<g><path style="opacity:0.022" fill="#43443f" d="M 106.5,370.5 C 105.85,372.435 105.517,374.435 105.5,376.5C 70.1667,411.5 34.8333,446.5 -0.5,481.5C -0.5,479.833 -0.5,478.167 -0.5,476.5C 35.1667,441.167 70.8333,405.833 106.5,370.5 Z"/></g>
<g><path style="opacity:0.022" fill="#43443f" d="M 383.5,373.5 C 383.5,375.167 383.5,376.833 383.5,378.5C 362.167,399.5 340.833,420.5 319.5,441.5C 318.391,441.443 317.391,441.11 316.5,440.5C 338.5,417.833 360.833,395.5 383.5,373.5 Z"/></g>
<g><path style="opacity:0.022" fill="#43443f" d="M 217.5,378.5 C 217.833,378.5 218.167,378.5 218.5,378.5C 219.167,379.5 219.833,380.5 220.5,381.5C 196.5,404.833 172.833,428.5 149.5,452.5C 148.005,452.011 146.671,451.345 145.5,450.5C 169.833,426.833 193.833,402.833 217.5,378.5 Z"/></g>
<g><path style="opacity:0.992" fill="#50a7c1" d="M 404.5,372.5 C 405.404,373.209 405.737,374.209 405.5,375.5C 406.127,380.141 406.46,384.807 406.5,389.5C 406.5,391.167 406.5,392.833 406.5,394.5C 407.783,399.469 407.783,404.469 406.5,409.5C 406.5,411.167 406.5,412.833 406.5,414.5C 406.5,415.167 406.5,415.833 406.5,416.5C 386.918,434.58 367.752,453.246 349,472.5C 348.536,473.094 348.369,473.761 348.5,474.5C 347.833,474.5 347.167,474.5 346.5,474.5C 345.167,474.5 343.833,474.5 342.5,474.5C 342.5,474.167 342.5,473.833 342.5,473.5C 350.167,466.5 357.5,459.167 364.5,451.5C 365.795,450.512 367.128,449.512 368.5,448.5C 371.833,447.167 374.167,444.833 375.5,441.5C 380.455,434.31 383.455,426.31 384.5,417.5C 384.5,415.833 384.5,414.167 384.5,412.5C 385.4,407.228 385.733,401.895 385.5,396.5C 385.784,394.585 385.451,392.919 384.5,391.5C 384.5,390.833 384.5,390.167 384.5,389.5C 385.552,389.649 386.552,389.483 387.5,389C 393.035,383.297 398.702,377.797 404.5,372.5 Z"/></g>
<g><path style="opacity:0.022" fill="#43443f" d="M 511.5,385.5 C 511.5,387.167 511.5,388.833 511.5,390.5C 470.833,430.5 430.5,470.833 390.5,511.5C 388.833,511.5 387.167,511.5 385.5,511.5C 427.167,469.167 469.167,427.167 511.5,385.5 Z"/></g>
<g><path style="opacity:0.022" fill="#434440" d="M 226.5,389.5 C 227.833,390.167 228.833,391.167 229.5,392.5C 209.833,411.5 190.5,430.833 171.5,450.5C 169.299,451.566 166.965,452.233 164.5,452.5C 185.167,431.5 205.833,410.5 226.5,389.5 Z"/></g>
<g><path style="opacity:0.022" fill="#43443f" d="M 384.5,391.5 C 385.451,392.919 385.784,394.585 385.5,396.5C 367.833,413.5 350.5,430.833 333.5,448.5C 331.847,448.34 330.514,447.674 329.5,446.5C 348.167,428.5 366.5,410.167 384.5,391.5 Z"/></g>
<g><path style="opacity:0.022" fill="#434440" d="M 104.5,392.5 C 104.167,394.5 103.833,396.5 103.5,398.5C 68.8333,432.833 34.1667,467.167 -0.5,501.5C -0.5,499.833 -0.5,498.167 -0.5,496.5C 34.5,461.833 69.5,427.167 104.5,392.5 Z"/></g>
<g><path style="opacity:0.022" fill="#444440" d="M 236.5,400.5 C 237.906,400.973 238.573,401.973 238.5,403.5C 232.5,408.833 226.833,414.5 221.5,420.5C 220.833,420.5 220.5,420.833 220.5,421.5C 219.833,421.5 219.5,421.833 219.5,422.5C 218.833,422.5 218.5,422.833 218.5,423.5C 217.833,423.5 217.5,423.833 217.5,424.5C 214.793,426.843 212.126,429.177 209.5,431.5C 206.833,432.833 204.167,434.167 201.5,435.5C 212.833,423.5 224.5,411.833 236.5,400.5 Z"/></g>
<g><path style="opacity:0.022" fill="#43443f" d="M 511.5,405.5 C 511.5,407.167 511.5,408.833 511.5,410.5C 477.5,443.833 443.833,477.5 410.5,511.5C 408.833,511.5 407.167,511.5 405.5,511.5C 440.5,475.833 475.833,440.5 511.5,405.5 Z"/></g>
<g><path style="opacity:0.022" fill="#43443f" d="M 104.5,412.5 C 104.5,414.167 104.5,415.833 104.5,417.5C 72.8333,448.5 41.5,479.833 10.5,511.5C 8.83333,511.5 7.16667,511.5 5.5,511.5C 38.1667,478.167 71.1667,445.167 104.5,412.5 Z"/></g>
<g><path style="opacity:0.022" fill="#43443f" d="M 384.5,412.5 C 384.5,414.167 384.5,415.833 384.5,417.5C 372.5,428.833 360.833,440.5 349.5,452.5C 347.585,452.784 345.919,452.451 344.5,451.5C 357.833,438.5 371.167,425.5 384.5,412.5 Z"/></g>
<g><path style="opacity:0.997" fill="#50a8c3" d="M 406.5,416.5 C 405.87,421.911 404.87,427.244 403.5,432.5C 402.833,434.833 402.167,437.167 401.5,439.5C 395.807,456.526 384.474,467.859 367.5,473.5C 365.435,473.517 363.435,473.85 361.5,474.5C 357.167,474.5 352.833,474.5 348.5,474.5C 348.369,473.761 348.536,473.094 349,472.5C 367.752,453.246 386.918,434.58 406.5,416.5 Z"/></g>
<g><path style="opacity:0.022" fill="#43443f" d="M 255.5,420.5 C 256.833,421.167 257.833,422.167 258.5,423.5C 228.833,452.5 199.5,481.833 170.5,511.5C 168.833,511.5 167.167,511.5 165.5,511.5C 191.833,484.833 218.167,458.167 244.5,431.5C 245.167,431.5 245.5,431.167 245.5,430.5C 246.167,430.5 246.5,430.167 246.5,429.5C 247.167,429.5 247.5,429.167 247.5,428.5C 248.167,428.5 248.5,428.167 248.5,427.5C 249.167,427.5 249.5,427.167 249.5,426.5C 250.167,426.5 250.5,426.167 250.5,425.5C 251.167,425.5 251.5,425.167 251.5,424.5C 252.167,424.5 252.5,424.167 252.5,423.5C 253.167,423.5 253.5,423.167 253.5,422.5C 254.167,422.5 254.5,422.167 254.5,421.5C 255.167,421.5 255.5,421.167 255.5,420.5 Z"/></g>
<g><path style="opacity:0.022" fill="#43443f" d="M 511.5,425.5 C 511.5,427.167 511.5,428.833 511.5,430.5C 484.167,457.167 457.167,484.167 430.5,511.5C 428.833,511.5 427.167,511.5 425.5,511.5C 453.833,482.5 482.5,453.833 511.5,425.5 Z"/></g>
<g><path style="opacity:0.022" fill="#43443f" d="M 106.5,430.5 C 107.434,431.568 107.768,432.901 107.5,434.5C 81.5,459.833 55.8333,485.5 30.5,511.5C 28.8333,511.5 27.1667,511.5 25.5,511.5C 52.1667,484.167 79.1667,457.167 106.5,430.5 Z"/></g>
<g><path style="opacity:0.022" fill="#434440" d="M 265.5,430.5 C 267.027,430.427 268.027,431.094 268.5,432.5C 242.5,458.833 216.5,485.167 190.5,511.5C 188.833,511.5 187.167,511.5 185.5,511.5C 212.167,484.5 238.833,457.5 265.5,430.5 Z"/></g>
<g><path style="opacity:0.022" fill="#43443f" d="M 276.5,439.5 C 277.5,440.167 278.5,440.833 279.5,441.5C 256.5,464.833 233.5,488.167 210.5,511.5C 208.833,511.5 207.167,511.5 205.5,511.5C 229.167,487.5 252.833,463.5 276.5,439.5 Z"/></g>
<g><path style="opacity:0.021" fill="#43443f" d="M 375.5,441.5 C 374.167,444.833 371.833,447.167 368.5,448.5C 370.5,445.833 372.833,443.5 375.5,441.5 Z"/></g>
<g><path style="opacity:0.994" fill="#50a8c2" d="M 271.5,405.5 C 272.5,406.167 273.5,406.833 274.5,407.5C 276.549,410.55 279.216,412.883 282.5,414.5C 282.833,415.5 283.5,416.167 284.5,416.5C 286.751,419.295 289.418,421.628 292.5,423.5C 292.973,424.906 293.973,425.573 295.5,425.5C 298.19,428.185 301.19,430.518 304.5,432.5C 305.29,433.401 306.29,434.068 307.5,434.5C 310.291,436.735 313.291,438.735 316.5,440.5C 317.391,441.11 318.391,441.443 319.5,441.5C 322.247,444.207 325.58,445.873 329.5,446.5C 330.514,447.674 331.847,448.34 333.5,448.5C 336.926,450.274 340.593,451.274 344.5,451.5C 345.919,452.451 347.585,452.784 349.5,452.5C 354.529,453.596 359.529,453.263 364.5,451.5C 357.5,459.167 350.167,466.5 342.5,473.5C 338.443,473.152 334.443,472.486 330.5,471.5C 329.329,470.655 327.995,469.989 326.5,469.5C 322.942,467.888 319.275,466.555 315.5,465.5C 314.71,464.599 313.71,463.932 312.5,463.5C 309.661,461.58 306.661,459.913 303.5,458.5C 302.486,457.326 301.153,456.66 299.5,456.5C 297.025,453.759 294.025,451.759 290.5,450.5C 290.027,449.094 289.027,448.427 287.5,448.5C 284.874,446.177 282.207,443.843 279.5,441.5C 278.5,440.833 277.5,440.167 276.5,439.5C 273.859,437.196 271.192,434.862 268.5,432.5C 268.027,431.094 267.027,430.427 265.5,430.5C 263.5,427.833 261.167,425.5 258.5,423.5C 257.833,422.167 256.833,421.167 255.5,420.5C 260.807,415.528 266.14,410.528 271.5,405.5 Z"/></g>
<g><path style="opacity:0.022" fill="#43443f" d="M 111.5,445.5 C 112.401,446.29 113.068,447.29 113.5,448.5C 92.1667,469.167 71.1667,490.167 50.5,511.5C 48.8333,511.5 47.1667,511.5 45.5,511.5C 67.1667,489.167 89.1667,467.167 111.5,445.5 Z"/></g>
<g><path style="opacity:0.993" fill="#50a7c2" d="M 128.5,427.5 C 128.989,428.995 129.655,430.329 130.5,431.5C 131.127,435.42 132.793,438.753 135.5,441.5C 135.427,443.027 136.094,444.027 137.5,444.5C 139.443,447.471 142.109,449.471 145.5,450.5C 146.671,451.345 148.005,452.011 149.5,452.5C 154.5,453.833 159.5,453.833 164.5,452.5C 166.965,452.233 169.299,451.566 171.5,450.5C 182.609,447.612 192.609,442.612 201.5,435.5C 204.167,434.167 206.833,432.833 209.5,431.5C 195.833,445.5 182.167,459.5 168.5,473.5C 168.158,474.338 167.492,474.672 166.5,474.5C 164.833,474.5 163.167,474.5 161.5,474.5C 156.833,474.5 152.167,474.5 147.5,474.5C 146.081,473.549 144.415,473.216 142.5,473.5C 139.322,471.991 135.989,470.658 132.5,469.5C 132.027,468.094 131.027,467.427 129.5,467.5C 126.859,465.196 124.192,462.862 121.5,460.5C 120.833,459.167 119.833,458.167 118.5,457.5C 117.099,454.366 115.432,451.366 113.5,448.5C 113.068,447.29 112.401,446.29 111.5,445.5C 111.5,445.167 111.5,444.833 111.5,444.5C 117.527,439.14 123.194,433.473 128.5,427.5 Z"/></g>
<g><path style="opacity:0.022" fill="#43443f" d="M 511.5,445.5 C 511.5,447.167 511.5,448.833 511.5,450.5C 490.833,470.5 470.5,490.833 450.5,511.5C 448.833,511.5 447.167,511.5 445.5,511.5C 467.167,489.167 489.167,467.167 511.5,445.5 Z"/></g>
<g><path style="opacity:0.022" fill="#43443f" d="M 287.5,448.5 C 289.027,448.427 290.027,449.094 290.5,450.5C 270.5,470.833 250.5,491.167 230.5,511.5C 228.833,511.5 227.167,511.5 225.5,511.5C 246.167,490.5 266.833,469.5 287.5,448.5 Z"/></g>
<g><path style="opacity:0.022" fill="#444440" d="M 299.5,456.5 C 301.153,456.66 302.486,457.326 303.5,458.5C 285.5,475.833 267.833,493.5 250.5,511.5C 248.833,511.5 247.167,511.5 245.5,511.5C 263.5,493.167 281.5,474.833 299.5,456.5 Z"/></g>
<g><path style="opacity:0.022" fill="#43443f" d="M 118.5,457.5 C 119.833,458.167 120.833,459.167 121.5,460.5C 104.167,477.167 87.1667,494.167 70.5,511.5C 68.8333,511.5 67.1667,511.5 65.5,511.5C 83.1667,493.5 100.833,475.5 118.5,457.5 Z"/></g>
<g><path style="opacity:0.022" fill="#43443f" d="M 312.5,463.5 C 313.71,463.932 314.71,464.599 315.5,465.5C 300.5,480.833 285.5,496.167 270.5,511.5C 268.833,511.5 267.167,511.5 265.5,511.5C 281.167,495.5 296.833,479.5 312.5,463.5 Z"/></g>
<g><path style="opacity:0.022" fill="#43443f" d="M 195.5,465.5 C 180.5,480.833 165.5,496.167 150.5,511.5C 148.833,511.5 147.167,511.5 145.5,511.5C 159.167,497.5 172.833,483.5 186.5,469.5C 187.167,469.5 187.5,469.167 187.5,468.5C 190.007,467.108 192.673,466.108 195.5,465.5 Z"/></g>
<g><path style="opacity:0.022" fill="#43443f" d="M 511.5,465.5 C 511.5,467.167 511.5,468.833 511.5,470.5C 497.5,483.833 483.833,497.5 470.5,511.5C 468.833,511.5 467.167,511.5 465.5,511.5C 480.5,495.833 495.833,480.5 511.5,465.5 Z"/></g>
<g><path style="opacity:0.022" fill="#43443f" d="M 129.5,467.5 C 131.027,467.427 132.027,468.094 132.5,469.5C 118.167,483.167 104.167,497.167 90.5,511.5C 88.8333,511.5 87.1667,511.5 85.5,511.5C 99.8333,496.5 114.5,481.833 129.5,467.5 Z"/></g>
<g><path style="opacity:0.022" fill="#43443f" d="M 326.5,469.5 C 327.995,469.989 329.329,470.655 330.5,471.5C 316.833,484.5 303.5,497.833 290.5,511.5C 288.833,511.5 287.167,511.5 285.5,511.5C 299.167,497.5 312.833,483.5 326.5,469.5 Z"/></g>
<g><path style="opacity:0.022" fill="#43443f" d="M 142.5,473.5 C 144.415,473.216 146.081,473.549 147.5,474.5C 134.833,486.5 122.5,498.833 110.5,511.5C 108.833,511.5 107.167,511.5 105.5,511.5C 117.833,498.833 130.167,486.167 142.5,473.5 Z"/></g>
<g><path style="opacity:0.022" fill="#43443f" d="M 367.5,473.5 C 355.167,486.167 342.833,498.833 330.5,511.5C 328.833,511.5 327.167,511.5 325.5,511.5C 337.5,499.167 349.5,486.833 361.5,474.5C 363.435,473.85 365.435,473.517 367.5,473.5 Z"/></g>
<g><path style="opacity:0.022" fill="#43443f" d="M 161.5,474.5 C 163.167,474.5 164.833,474.5 166.5,474.5C 154.5,486.833 142.5,499.167 130.5,511.5C 128.833,511.5 127.167,511.5 125.5,511.5C 137.5,499.167 149.5,486.833 161.5,474.5 Z"/></g>
<g><path style="opacity:0.022" fill="#43443f" d="M 342.5,474.5 C 343.833,474.5 345.167,474.5 346.5,474.5C 334.5,486.833 322.5,499.167 310.5,511.5C 308.833,511.5 307.167,511.5 305.5,511.5C 317.5,498.833 329.833,486.5 342.5,474.5 Z"/></g>
<g><path style="opacity:0.022" fill="#43443f" d="M 511.5,485.5 C 511.5,487.167 511.5,488.833 511.5,490.5C 504.167,497.167 497.167,504.167 490.5,511.5C 488.833,511.5 487.167,511.5 485.5,511.5C 493.833,502.5 502.5,493.833 511.5,485.5 Z"/></g>
<g><path style="opacity:0.022" fill="#43443f" d="M 511.5,505.5 C 511.5,507.167 511.5,508.833 511.5,510.5C 510.833,510.5 510.5,510.833 510.5,511.5C 508.833,511.5 507.167,511.5 505.5,511.5C 507.167,509.167 509.167,507.167 511.5,505.5 Z"/></g>
</svg>
