<?xml version="1.0" encoding="UTF-8"?>
<!DOCTYPE svg PUBLIC "-//W3C//DTD SVG 1.1//EN" "http://www.w3.org/Graphics/SVG/1.1/DTD/svg11.dtd">
<svg xmlns="http://www.w3.org/2000/svg" version="1.1" width="500px" height="178px" style="shape-rendering:geometricPrecision; text-rendering:geometricPrecision; image-rendering:optimizeQuality; fill-rule:evenodd; clip-rule:evenodd" xmlns:xlink="http://www.w3.org/1999/xlink">
<g><path style="opacity:0.027" fill="#e2f8fd" d="M 136.5,23.5 C 141.825,23.6468 145.325,26.3135 147,31.5C 149.426,40.3424 150.093,49.3424 149,58.5C 148.768,59.7375 148.268,60.7375 147.5,61.5C 147.779,52.4653 147.445,43.4653 146.5,34.5C 144.737,29.2397 141.404,25.573 136.5,23.5 Z"/></g>
<g><path style="opacity:0.972" fill="#48dcfe" d="M 57.5,23.5 C 62.5,23.5 67.5,23.5 72.5,23.5C 77.4526,24.9255 82.1193,26.9255 86.5,29.5C 89.6743,30.0102 92.0077,31.6769 93.5,34.5C 94.7273,36.5805 96.2273,38.5805 98,40.5C 100.744,37.9274 103.244,35.2607 105.5,32.5C 108.825,28.3803 113.158,25.547 118.5,24C 124.491,23.5005 130.491,23.3338 136.5,23.5C 141.404,25.573 144.737,29.2397 146.5,34.5C 147.445,43.4653 147.779,52.4653 147.5,61.5C 146.532,63.6074 146.198,65.9407 146.5,68.5C 152.368,69.6507 158.034,71.3173 163.5,73.5C 170.053,76.0536 175.053,80.387 178.5,86.5C 179.368,90.8076 179.534,95.141 179,99.5C 176.542,103.771 173.709,107.771 170.5,111.5C 168.201,113.773 165.535,115.773 162.5,117.5C 160.271,118.577 157.937,119.244 155.5,119.5C 152.482,119.704 149.482,120.037 146.5,120.5C 147.356,131.81 147.69,143.143 147.5,154.5C 146.718,159.799 144.051,163.966 139.5,167C 123.194,168.997 109.694,163.83 99,151.5C 94.0855,156.927 88.2521,160.927 81.5,163.5C 73.9193,165.232 66.2526,165.732 58.5,165C 55.3376,163.635 52.6709,161.802 50.5,159.5C 49.596,158.791 49.2627,157.791 49.5,156.5C 48.6529,147.528 48.3195,138.528 48.5,129.5C 48.7845,127.123 48.7845,124.956 48.5,123C 38.8373,120.336 30.1706,115.836 22.5,109.5C 16.774,103.267 14.9406,95.9338 17,87.5C 19.7851,82.3811 23.6184,78.2144 28.5,75C 34.5063,71.4954 40.8397,68.662 47.5,66.5C 48.4656,64.604 48.7989,62.604 48.5,60.5C 48.3336,52.4931 48.5003,44.4931 49,36.5C 50.3168,31.1172 53.1501,26.7839 57.5,23.5 Z M 76.5,34.5 C 77.733,36.7964 79.733,38.1298 82.5,38.5C 84.6969,41.1946 87.0303,43.6946 89.5,46C 86.78,49.2825 84.4467,52.7825 82.5,56.5C 81.0322,57.8057 79.6988,59.3057 78.5,61C 73.5465,61.9954 68.5465,62.6621 63.5,63C 62.5842,63.2784 61.9175,63.7784 61.5,64.5C 60.2502,64.4226 59.4169,63.756 59,62.5C 56.9756,53.6258 57.1423,44.7925 59.5,36C 60.962,33.5405 63.1287,32.3739 66,32.5C 69.5272,33.0909 73.0272,33.7575 76.5,34.5 Z M 135.5,64.5 C 135.082,63.7784 134.416,63.2784 133.5,63C 128.53,62.1144 123.53,61.4477 118.5,61C 116.383,59.2691 114.883,57.1024 114,54.5C 113.329,53.7476 112.496,53.4142 111.5,53.5C 110.423,50.6216 108.756,48.1216 106.5,46C 107.699,44.3057 109.032,42.8057 110.5,41.5C 114.537,38.8202 118.537,36.1535 122.5,33.5C 126.131,32.588 129.797,32.4213 133.5,33C 135,33.8333 136.167,35 137,36.5C 138.665,44.6426 138.832,52.8092 137.5,61C 137.392,62.6811 136.725,63.8478 135.5,64.5 Z M 99.5,54.5 C 100.228,56.7346 101.561,58.5679 103.5,60C 100.305,60.1805 97.3054,60.6805 94.5,61.5C 93.2438,61.5386 92.2438,61.0386 91.5,60C 93.8859,57.6826 96.5525,55.8493 99.5,54.5 Z M 114.5,74.5 C 117.685,81.3722 121.352,88.0389 125.5,94.5C 121.464,102.188 117.464,109.854 113.5,117.5C 103.88,118.615 94.2138,118.782 84.5,118C 83.9341,117.005 83.2674,116.172 82.5,115.5C 80.8896,112.534 79.2229,109.534 77.5,106.5C 77.0431,105.702 76.3764,105.369 75.5,105.5C 75.1594,102.484 73.9927,99.8175 72,97.5C 71.5045,95.5273 71.3379,93.5273 71.5,91.5C 72.3764,91.6309 73.0431,91.2975 73.5,90.5C 76.4897,83.3429 80.4897,76.8429 85.5,71C 93.8333,70.3333 102.167,70.3333 110.5,71C 112.35,71.6897 113.684,72.8564 114.5,74.5 Z M 125.5,73.5 C 127.919,73.1949 130.586,73.1949 133.5,73.5C 133.425,76.4067 132.591,79.0734 131,81.5C 129.724,78.4006 127.89,75.7339 125.5,73.5 Z M 63.5,73.5 C 65.5,73.5 67.5,73.5 69.5,73.5C 68.9573,76.0384 67.9573,78.3718 66.5,80.5C 65.5041,80.5858 64.6708,80.2524 64,79.5C 62.7586,77.4521 62.5919,75.4521 63.5,73.5 Z M 47.5,77.5 C 49.1667,77.5 50.8333,77.5 52.5,77.5C 53.6279,83.3895 55.6279,88.8895 58.5,94C 55.8091,100.257 53.8091,106.757 52.5,113.5C 46.0922,111.733 40.0922,109.066 34.5,105.5C 31.5282,103.359 29.0282,100.692 27,97.5C 26.2463,91.8766 28.5796,87.8766 34,85.5C 34.4643,84.9056 34.631,84.2389 34.5,83.5C 36.153,83.3404 37.4863,82.6737 38.5,81.5C 41.6975,80.5479 44.6975,79.2145 47.5,77.5 Z M 146.5,112.5 C 145.504,112.586 144.671,112.252 144,111.5C 143.156,107.789 142.156,104.123 141,100.5C 140.623,99.0577 139.79,98.0577 138.5,97.5C 138.835,91.8442 140.169,86.5109 142.5,81.5C 143.434,80.4324 143.768,79.099 143.5,77.5C 153.904,79.034 162.571,83.7006 169.5,91.5C 169.987,92.4461 170.32,93.4461 170.5,94.5C 169.266,97.4086 167.599,100.075 165.5,102.5C 159.561,106.818 153.228,110.151 146.5,112.5 Z M 131.5,107.5 C 132.219,110.073 133.219,112.573 134.5,115C 131.904,116.136 129.237,116.969 126.5,117.5C 128.186,114.128 129.853,110.795 131.5,107.5 Z M 66.5,109.5 C 67.829,111.802 69.1623,114.136 70.5,116.5C 68.604,117.466 66.604,117.799 64.5,117.5C 62.2664,115.519 62.0998,113.185 64,110.5C 64.6708,109.748 65.5041,109.414 66.5,109.5 Z M 61.5,126.5 C 67.7192,126.743 73.7192,127.91 79.5,130C 82.9255,134.848 86.5922,139.515 90.5,144C 84.6694,150.333 77.6694,154.833 69.5,157.5C 63.0668,158.39 59.0668,155.723 57.5,149.5C 57.5,149.167 57.5,148.833 57.5,148.5C 57.5027,141.467 58.0027,134.467 59,127.5C 59.6708,126.748 60.5041,126.414 61.5,126.5 Z M 139.5,139.5 C 139.878,146.505 137.878,152.672 133.5,158C 132.667,158.167 131.833,158.333 131,158.5C 121.151,156.132 112.984,151.132 106.5,143.5C 107.524,142.148 108.524,140.815 109.5,139.5C 112.635,136.192 115.635,132.692 118.5,129C 124.764,127.718 131.097,126.885 137.5,126.5C 137.884,131.01 138.551,135.343 139.5,139.5 Z M 93.5,130.5 C 96.6399,129.359 99.9733,129.192 103.5,130C 102.018,131.983 100.351,133.816 98.5,135.5C 96.4514,134.118 94.7847,132.452 93.5,130.5 Z"/></g>
<g><path style="opacity:0.022" fill="#f2f4f5" d="M 72.5,23.5 C 78.204,23.3913 82.8707,25.3913 86.5,29.5C 82.1193,26.9255 77.4526,24.9255 72.5,23.5 Z"/></g>
<g><path style="opacity:0.011" fill="#dff6fa" d="M 135.5,64.5 C 136.725,63.8478 137.392,62.6811 137.5,61C 138.832,52.8092 138.665,44.6426 137,36.5C 136.167,35 135,33.8333 133.5,33C 129.797,32.4213 126.131,32.588 122.5,33.5C 122.47,32.5028 122.97,31.8361 124,31.5C 133.139,27.8958 138.139,30.8958 139,40.5C 139.573,48.849 139.407,57.1823 138.5,65.5C 137.209,65.7373 136.209,65.404 135.5,64.5 Z"/></g>
<g><path style="opacity:0.018" fill="#d3f1f8" d="M 76.5,34.5 C 73.0272,33.7575 69.5272,33.0909 66,32.5C 63.1287,32.3739 60.962,33.5405 59.5,36C 57.1423,44.7925 56.9756,53.6258 59,62.5C 59.4169,63.756 60.2502,64.4226 61.5,64.5C 60.0476,65.7131 58.7143,65.3797 57.5,63.5C 54.7353,54.0939 54.9019,44.7606 58,35.5C 59.0694,31.7138 61.5694,30.0471 65.5,30.5C 68.5318,30.8064 71.5318,31.3064 74.5,32C 75.756,32.4169 76.4226,33.2502 76.5,34.5 Z"/></g>
<g><path style="opacity:0.133" fill="#c9ebf2" d="M 105.5,32.5 C 103.244,35.2607 100.744,37.9274 98,40.5C 96.2273,38.5805 94.7273,36.5805 93.5,34.5C 94.8853,35.6138 96.3853,36.6138 98,37.5C 100.122,35.2436 102.622,33.577 105.5,32.5 Z"/></g>
<g><path style="opacity:0.01" fill="#fcfefe" d="M 275.5,64.5 C 273.091,57.5892 268.424,52.7559 261.5,50C 248.218,48.5966 234.885,48.0966 221.5,48.5C 225.614,47.1739 230.114,46.5073 235,46.5C 241.725,46.9982 248.392,46.9982 255,46.5C 261.798,47.3985 267.465,50.3985 272,55.5C 274.287,58.0722 275.453,61.0722 275.5,64.5 Z"/></g>
<g><path style="opacity:0.169" fill="#e4f7fb" d="M 57.5,23.5 C 53.1501,26.7839 50.3168,31.1172 49,36.5C 48.5003,44.4931 48.3336,52.4931 48.5,60.5C 47.8826,60.3893 47.3826,60.056 47,59.5C 45.5744,48.8168 46.5744,38.4834 50,28.5C 51.8864,25.758 54.3864,24.0913 57.5,23.5 Z"/></g>
<g><path style="opacity:0.184" fill="#c6f1fa" d="M 110.5,41.5 C 109.032,42.8057 107.699,44.3057 106.5,46C 108.756,48.1216 110.423,50.6216 111.5,53.5C 108.703,51.205 106.036,48.705 103.5,46C 105.174,43.4952 107.507,41.9952 110.5,41.5 Z"/></g>
<g><path style="opacity:0.987" fill="#35dafe" d="M 221.5,48.5 C 234.885,48.0966 248.218,48.5966 261.5,50C 268.424,52.7559 273.091,57.5892 275.5,64.5C 275.5,64.8333 275.5,65.1667 275.5,65.5C 275.13,71.6079 274.13,77.6079 272.5,83.5C 271.103,85.3793 269.437,87.0459 267.5,88.5C 263.623,89.449 259.79,90.449 256,91.5C 256.002,94.205 257.335,96.205 260,97.5C 260.057,99.9102 261.224,101.244 263.5,101.5C 264.562,104.516 265.729,107.516 267,110.5C 268.129,112.141 269.629,113.141 271.5,113.5C 272.261,116.45 273.595,119.116 275.5,121.5C 271.555,122.491 267.555,122.824 263.5,122.5C 262.504,122.586 261.671,122.252 261,121.5C 256.307,113.331 251.473,105.331 246.5,97.5C 246.67,96.1779 246.337,95.0113 245.5,94C 240.845,93.5008 236.179,93.3342 231.5,93.5C 231.5,103.167 231.5,112.833 231.5,122.5C 228.167,122.5 224.833,122.5 221.5,122.5C 221.795,120.265 221.461,118.265 220.5,116.5C 219.222,104.832 219.222,93.1649 220.5,81.5C 220.457,70.4855 220.791,59.4855 221.5,48.5 Z M 255.5,59.5 C 256.945,61.0627 258.611,62.396 260.5,63.5C 262.278,67.5653 262.945,71.8986 262.5,76.5C 259.838,79.6551 256.505,81.8218 252.5,83C 245.842,83.4996 239.175,83.6663 232.5,83.5C 233.321,75.5272 233.321,67.5272 232.5,59.5C 240.167,59.5 247.833,59.5 255.5,59.5 Z"/></g>
<g><path style="opacity:0.067" fill="#beeaf8" d="M 82.5,38.5 C 86.3486,40.2634 89.6819,42.7634 92.5,46C 89.7115,50.1282 86.3782,53.6282 82.5,56.5C 84.4467,52.7825 86.78,49.2825 89.5,46C 87.0303,43.6946 84.6969,41.1946 82.5,38.5 Z"/></g>
<g><path style="opacity:0.008" fill="#ecf4f6" d="M 221.5,48.5 C 220.791,59.4855 220.457,70.4855 220.5,81.5C 219.834,76.1771 219.501,70.6771 219.5,65C 219.505,59.1238 220.171,53.6238 221.5,48.5 Z"/></g>
<g><path style="opacity:0.985" fill="#32dafe" d="M 469.5,53.5 C 469.5,58.5 469.5,63.5 469.5,68.5C 473.167,68.5 476.833,68.5 480.5,68.5C 480.5,71.5 480.5,74.5 480.5,77.5C 476.833,77.5 473.167,77.5 469.5,77.5C 469.333,89.1714 469.5,100.838 470,112.5C 471.009,113.658 472.342,114.325 474,114.5C 475.385,114.486 476.551,114.152 477.5,113.5C 478.85,110.894 480.35,110.894 482,113.5C 482.805,116.696 482.638,119.696 481.5,122.5C 475.673,124.151 470.006,123.817 464.5,121.5C 463.653,120.155 462.487,119.155 461,118.5C 460.653,113.703 459.819,109.037 458.5,104.5C 458.5,100.833 458.5,97.1667 458.5,93.5C 458.195,88.2384 458.529,83.0717 459.5,78C 456.854,77.5026 454.187,77.3359 451.5,77.5C 451.5,74.5 451.5,71.5 451.5,68.5C 454.167,68.5 456.833,68.5 459.5,68.5C 459.223,63.7668 459.557,59.1001 460.5,54.5C 463.428,53.5159 466.428,53.1826 469.5,53.5 Z"/></g>
<g><path style="opacity:0.227" fill="#c6f4ff" d="M 99.5,54.5 C 103.147,54.8133 105.147,56.8133 105.5,60.5C 101.893,61.4892 98.226,61.8226 94.5,61.5C 97.3054,60.6805 100.305,60.1805 103.5,60C 101.561,58.5679 100.228,56.7346 99.5,54.5 Z"/></g>
<g><path style="opacity:0.004" fill="#fefffe" d="M 46.5,63.5 C 47.8333,64.1667 47.8333,64.1667 46.5,63.5 Z"/></g>
<g><path style="opacity:0.012" fill="#daf0f5" d="M 147.5,61.5 C 147.215,63.288 147.548,64.9547 148.5,66.5C 153.893,68.2827 158.893,70.6161 163.5,73.5C 158.034,71.3173 152.368,69.6507 146.5,68.5C 146.198,65.9407 146.532,63.6074 147.5,61.5 Z"/></g>
<g><path style="opacity:0.031" fill="#f2f6f7" d="M 260.5,63.5 C 261.75,63.5774 262.583,64.244 263,65.5C 263.81,69.3575 263.643,73.0242 262.5,76.5C 262.945,71.8986 262.278,67.5653 260.5,63.5 Z"/></g>
<g><path style="opacity:0.909" fill="#96e7fb" d="M 321.5,69.5 C 321.833,70.1667 322.167,70.8333 322.5,71.5C 310.672,68.0285 299.339,69.0285 288.5,74.5C 289.625,72.8712 290.959,71.3712 292.5,70C 300.693,65.4227 309.36,64.4227 318.5,67C 319.571,67.8518 320.571,68.6851 321.5,69.5 Z"/></g>
<g><path style="opacity:0.978" fill="#3bdafe" d="M 322.5,71.5 C 331.64,78.4787 335.307,87.812 333.5,99.5C 319.496,99.3334 305.496,99.5001 291.5,100C 292.289,102.267 292.956,104.6 293.5,107C 294.13,108.31 295.13,109.144 296.5,109.5C 305.093,116.564 313.76,116.897 322.5,110.5C 326.687,108.458 329.02,109.791 329.5,114.5C 329.098,116.3 328.431,117.967 327.5,119.5C 324.808,122.181 321.475,123.514 317.5,123.5C 312.167,123.5 306.833,123.5 301.5,123.5C 291.403,122.071 285.07,116.405 282.5,106.5C 281.227,99.1626 281.227,91.8292 282.5,84.5C 282.982,80.1946 284.982,76.8612 288.5,74.5C 299.339,69.0285 310.672,68.0285 322.5,71.5 Z M 322.5,90.5 C 313.833,90.5 305.167,90.5 296.5,90.5C 295.5,90.5 294.5,90.5 293.5,90.5C 297.66,77.4364 305.993,74.103 318.5,80.5C 320.074,83.7292 321.741,86.8959 323.5,90C 323.272,90.3988 322.938,90.5654 322.5,90.5 Z"/></g>
<g><path style="opacity:0.973" fill="#3adbfe" d="M 361.5,66.5 C 368.119,66.1586 374.452,67.3253 380.5,70C 383.667,71.8333 386.167,74.3333 388,77.5C 388.5,92.4963 388.667,107.496 388.5,122.5C 385.5,122.5 382.5,122.5 379.5,122.5C 379.762,121.022 379.429,119.689 378.5,118.5C 376.142,119.154 374.475,120.487 373.5,122.5C 367.536,123.307 361.536,123.64 355.5,123.5C 349.994,122.653 346.327,119.653 344.5,114.5C 343.671,109.547 343.337,104.547 343.5,99.5C 344.424,94.2452 347.424,90.9118 352.5,89.5C 360.089,87.9172 367.589,88.2505 375,90.5C 378.277,94.9101 379.777,94.2434 379.5,88.5C 379.444,86.3603 378.777,84.6936 377.5,83.5C 376.167,80.8333 374.167,78.8333 371.5,77.5C 370.306,76.2227 368.64,75.5561 366.5,75.5C 364.36,75.5561 362.694,76.2227 361.5,77.5C 357.191,77.8222 353.524,79.4889 350.5,82.5C 349.01,81.1603 347.344,80.1603 345.5,79.5C 344.588,78.2618 344.421,76.9285 345,75.5C 349.23,70.0881 354.73,67.0881 361.5,66.5 Z M 371.5,97.5 C 371.833,97.5 372.167,97.5 372.5,97.5C 377.498,100.938 378.831,105.605 376.5,111.5C 375.251,113.136 373.584,114.303 371.5,115C 368.183,115.498 364.85,115.665 361.5,115.5C 355.165,111.634 353.832,106.301 357.5,99.5C 361.802,96.4501 366.469,95.7834 371.5,97.5 Z"/></g>
<g><path style="opacity:0.98" fill="#4adcfd" d="M 423.5,66.5 C 429.67,66.7321 435.67,67.8988 441.5,70C 448.001,74.2832 448.001,78.4498 441.5,82.5C 439.244,79.5377 436.244,77.8711 432.5,77.5C 432.167,77.5 431.833,77.5 431.5,77.5C 430.486,76.2353 428.986,75.5687 427,75.5C 422.351,76.7411 418.184,78.9078 414.5,82C 409.493,90.7729 409.326,99.6062 414,108.5C 414.671,109.252 415.504,109.586 416.5,109.5C 421.725,114.238 427.725,115.571 434.5,113.5C 437.34,112.577 439.674,110.91 441.5,108.5C 444.877,109.877 447.211,112.21 448.5,115.5C 446.183,120.453 442.183,123.12 436.5,123.5C 431.489,123.666 426.489,123.499 421.5,123C 417.134,121.148 412.801,119.314 408.5,117.5C 407.526,116.365 406.359,115.365 405,114.5C 397.746,101.514 397.913,88.514 405.5,75.5C 410.408,70.2042 416.408,67.2042 423.5,66.5 Z"/></g>
<g><path style="opacity:0.01" fill="#d6f1f7" d="M 114.5,74.5 C 113.684,72.8564 112.35,71.6897 110.5,71C 102.167,70.3333 93.8333,70.3333 85.5,71C 80.4897,76.8429 76.4897,83.3429 73.5,90.5C 73.0431,91.2975 72.3764,91.6309 71.5,91.5C 73.5179,87.816 75.1846,83.816 76.5,79.5C 78.7262,76.1964 81.0596,73.0297 83.5,70C 92.8333,69.3333 102.167,69.3333 111.5,70C 113.863,70.5885 114.863,72.0885 114.5,74.5 Z"/></g>
<g><path style="opacity:0.009" fill="#e7f1f5" d="M 69.5,73.5 C 67.5,73.5 65.5,73.5 63.5,73.5C 64.3339,72.2521 65.6672,71.5854 67.5,71.5C 68.8333,71.6667 70.1667,71.8333 71.5,72C 70.5842,72.2784 69.9175,72.7784 69.5,73.5 Z"/></g>
<g><path style="opacity:0.202" fill="#dff4f9" d="M 255.5,59.5 C 247.833,59.5 240.167,59.5 232.5,59.5C 233.321,67.5272 233.321,75.5272 232.5,83.5C 231.501,75.9205 231.168,67.5871 231.5,58.5C 239.684,58.1743 247.684,58.5076 255.5,59.5 Z"/></g>
<g><path style="opacity:0.038" fill="#eef9fc" d="M 469.5,53.5 C 466.428,53.1826 463.428,53.5159 460.5,54.5C 459.557,59.1001 459.223,63.7668 459.5,68.5C 456.833,68.5 454.167,68.5 451.5,68.5C 451.5,71.5 451.5,74.5 451.5,77.5C 454.187,77.3359 456.854,77.5026 459.5,78C 458.529,83.0717 458.195,88.2384 458.5,93.5C 457.513,88.6946 457.179,83.6946 457.5,78.5C 452.462,77.4482 448.462,78.9482 445.5,83C 443.167,83.6667 440.833,83.6667 438.5,83C 436.929,80.591 434.929,78.7577 432.5,77.5C 436.244,77.8711 439.244,79.5377 441.5,82.5C 448.001,78.4498 448.001,74.2832 441.5,70C 435.67,67.8988 429.67,66.7321 423.5,66.5C 429.029,65.4406 434.695,65.6073 440.5,67C 443.663,69.202 446.497,71.702 449,74.5C 449.226,71.905 449.726,69.405 450.5,67C 452.81,66.5034 455.143,66.3367 457.5,66.5C 457.174,62.1161 457.508,57.7828 458.5,53.5C 462.299,52.2073 465.966,52.2073 469.5,53.5 Z"/></g>
<g><path style="opacity:0.022" fill="#f3f2f2" d="M 469.5,53.5 C 470.485,57.6344 470.818,61.9677 470.5,66.5C 474.106,66.2108 477.606,66.5442 481,67.5C 481.499,71.1516 481.665,74.8183 481.5,78.5C 477.833,78.5 474.167,78.5 470.5,78.5C 470.333,89.1719 470.5,99.8385 471,110.5C 472.508,112.838 474.675,113.838 477.5,113.5C 476.551,114.152 475.385,114.486 474,114.5C 472.342,114.325 471.009,113.658 470,112.5C 469.5,100.838 469.333,89.1714 469.5,77.5C 473.167,77.5 476.833,77.5 480.5,77.5C 480.5,74.5 480.5,71.5 480.5,68.5C 476.833,68.5 473.167,68.5 469.5,68.5C 469.5,63.5 469.5,58.5 469.5,53.5 Z"/></g>
<g><path style="opacity:0.106" fill="#d9e9ea" d="M 371.5,77.5 C 368.167,77.5 364.833,77.5 361.5,77.5C 362.694,76.2227 364.36,75.5561 366.5,75.5C 368.64,75.5561 370.306,76.2227 371.5,77.5 Z"/></g>
<g><path style="opacity:0.259" fill="#d2f2f8" d="M 275.5,65.5 C 276.647,69.6463 276.814,73.9796 276,78.5C 275.451,80.7596 274.284,82.4262 272.5,83.5C 274.13,77.6079 275.13,71.6079 275.5,65.5 Z"/></g>
<g><path style="opacity:0.22" fill="#cbf4fd" d="M 107.5,81.5 C 101.45,80.0044 95.4499,80.1711 89.5,82C 88.3333,83.8333 86.8333,85.3333 85,86.5C 82.8784,92.2709 83.0451,97.9376 85.5,103.5C 84.5041,103.586 83.6708,103.252 83,102.5C 78.962,88.5697 83.962,80.2364 98,77.5C 101.98,77.2066 105.146,78.54 107.5,81.5 Z"/></g>
<g><path style="opacity:0.01" fill="#e9f2f9" d="M 47.5,77.5 C 44.6975,79.2145 41.6975,80.5479 38.5,81.5C 40.8177,79.0442 43.8177,77.7109 47.5,77.5 Z"/></g>
<g><path style="opacity:0.02" fill="#e9f2f8" d="M 63.5,73.5 C 62.5919,75.4521 62.7586,77.4521 64,79.5C 64.6708,80.2524 65.5041,80.5858 66.5,80.5C 66.3718,82.0898 65.7051,83.4231 64.5,84.5C 63.3024,81.5738 62.3024,78.5738 61.5,75.5C 61.7472,74.2867 62.4138,73.62 63.5,73.5 Z"/></g>
<g><path style="opacity:0.031" fill="#f3fafb" d="M 361.5,77.5 C 357.49,79.986 353.324,82.3193 349,84.5C 347.341,83.1843 346.175,81.5176 345.5,79.5C 347.344,80.1603 349.01,81.1603 350.5,82.5C 353.524,79.4889 357.191,77.8222 361.5,77.5 Z"/></g>
<g><path style="opacity:0.992" fill="#18d8fe" d="M 107.5,81.5 C 109.535,84.283 111.535,86.9497 113.5,89.5C 113.82,92.8984 113.487,96.2317 112.5,99.5C 110.509,101.985 108.843,104.652 107.5,107.5C 101.492,108.774 95.492,108.774 89.5,107.5C 87.1667,107.167 85.8333,105.833 85.5,103.5C 83.0451,97.9376 82.8784,92.2709 85,86.5C 86.8333,85.3333 88.3333,83.8333 89.5,82C 95.4499,80.1711 101.45,80.0044 107.5,81.5 Z"/></g>
<g><path style="opacity:0.018" fill="#eaf7fd" d="M 324.5,91.5 C 323.508,91.6716 322.842,91.3382 322.5,90.5C 322.938,90.5654 323.272,90.3988 323.5,90C 321.741,86.8959 320.074,83.7292 318.5,80.5C 305.993,74.103 297.66,77.4364 293.5,90.5C 294.5,90.5 295.5,90.5 296.5,90.5C 296.5,90.8333 296.5,91.1667 296.5,91.5C 294.833,91.5 293.167,91.5 291.5,91.5C 292.567,81.6002 298.067,76.2669 308,75.5C 311.891,76.021 315.724,76.6877 319.5,77.5C 321.947,81.8371 323.613,86.5038 324.5,91.5 Z M 322.5,90.5 C 313.833,90.5 305.167,90.5 296.5,90.5C 295.5,90.5 294.5,90.5 293.5,90.5C 297.66,77.4364 305.993,74.103 318.5,80.5C 320.074,83.7292 321.741,86.8959 323.5,90C 323.272,90.3988 322.938,90.5654 322.5,90.5 Z"/></g>
<g><path style="opacity:0.024" fill="#ecfaff" d="M 107.5,81.5 C 110.937,83.0226 112.937,85.6893 113.5,89.5C 111.535,86.9497 109.535,84.283 107.5,81.5 Z"/></g>
<g><path style="opacity:0.192" fill="#c8eff7" d="M 377.5,83.5 C 378.777,84.6936 379.444,86.3603 379.5,88.5C 379.777,94.2434 378.277,94.9101 375,90.5C 367.589,88.2505 360.089,87.9172 352.5,89.5C 353.058,88.2101 354.058,87.3768 355.5,87C 362.821,85.7246 369.821,86.5579 376.5,89.5C 377.466,87.604 377.799,85.604 377.5,83.5 Z"/></g>
<g><path style="opacity:0.9" fill="#abeafa" d="M 272.5,83.5 C 270.269,89.3196 265.936,92.8196 259.5,94C 261.54,96.1851 262.874,98.6851 263.5,101.5C 261.224,101.244 260.057,99.9102 260,97.5C 257.335,96.205 256.002,94.205 256,91.5C 259.79,90.449 263.623,89.449 267.5,88.5C 269.437,87.0459 271.103,85.3793 272.5,83.5 Z"/></g>
<g><path style="opacity:0.149" fill="#9ce9f9" d="M 296.5,90.5 C 305.167,90.5 313.833,90.5 322.5,90.5C 322.842,91.3382 323.508,91.6716 324.5,91.5C 315.167,92.8333 305.833,92.8333 296.5,91.5C 296.5,91.1667 296.5,90.8333 296.5,90.5 Z"/></g>
<g><path style="opacity:0.033" fill="#e9f9fc" d="M 71.5,91.5 C 71.3379,93.5273 71.5045,95.5273 72,97.5C 73.9927,99.8175 75.1594,102.484 75.5,105.5C 72.7456,102.525 70.7456,99.0253 69.5,95C 69.8082,93.5405 70.4749,92.3739 71.5,91.5 Z"/></g>
<g><path style="opacity:0.071" fill="#cff1f9" d="M 142.5,81.5 C 140.169,86.5109 138.835,91.8442 138.5,97.5C 137.548,96.548 136.548,95.548 135.5,94.5C 137.945,90.8325 139.612,86.8325 140.5,82.5C 140.957,81.7025 141.624,81.3691 142.5,81.5 Z"/></g>
<g><path style="opacity:0.096" fill="#e7f4f6" d="M 178.5,86.5 C 183.051,97.1801 180.384,105.513 170.5,111.5C 173.709,107.771 176.542,103.771 179,99.5C 179.534,95.141 179.368,90.8076 178.5,86.5 Z"/></g>
<g><path style="opacity:0.106" fill="#ddf5f9" d="M 431.5,77.5 C 423.651,76.6741 417.817,79.6741 414,86.5C 411.449,94.6173 412.282,102.284 416.5,109.5C 415.504,109.586 414.671,109.252 414,108.5C 409.326,99.6062 409.493,90.7729 414.5,82C 418.184,78.9078 422.351,76.7411 427,75.5C 428.986,75.5687 430.486,76.2353 431.5,77.5 Z"/></g>
<g><path style="opacity:0.261" fill="#d1f1f8" d="M 246.5,97.5 C 242.804,94.4007 238.638,93.734 234,95.5C 232.631,104.724 232.131,113.891 232.5,123C 228.5,123.667 224.5,123.667 220.5,123C 219.189,120.726 219.189,118.56 220.5,116.5C 221.461,118.265 221.795,120.265 221.5,122.5C 224.833,122.5 228.167,122.5 231.5,122.5C 231.5,112.833 231.5,103.167 231.5,93.5C 236.179,93.3342 240.845,93.5008 245.5,94C 246.337,95.0113 246.67,96.1779 246.5,97.5 Z"/></g>
<g><path style="opacity:0.914" fill="#b3edfc" d="M 34.5,83.5 C 34.631,84.2389 34.4643,84.9056 34,85.5C 28.5796,87.8766 26.2463,91.8766 27,97.5C 29.0282,100.692 31.5282,103.359 34.5,105.5C 24.02,103.197 21.52,97.5303 27,88.5C 29.1667,87.6667 30.6667,86.1667 31.5,84C 32.448,83.5172 33.448,83.3505 34.5,83.5 Z"/></g>
<g><path style="opacity:0.306" fill="#e6f7fb" d="M 282.5,84.5 C 281.227,91.8292 281.227,99.1626 282.5,106.5C 279.076,103.178 277.742,99.0108 278.5,94C 278.833,91.5 279.167,89 279.5,86.5C 280.518,85.8075 281.518,85.1408 282.5,84.5 Z"/></g>
<g><path style="opacity:0.026" fill="#f6f6f7" d="M 321.5,69.5 C 324.372,70.5262 326.872,72.1929 329,74.5C 334.812,81.8196 337.146,90.1529 336,99.5C 335.5,100 335,100.5 334.5,101C 320.833,101.333 307.167,101.667 293.5,102C 294.781,104.427 295.781,106.927 296.5,109.5C 295.13,109.144 294.13,108.31 293.5,107C 292.956,104.6 292.289,102.267 291.5,100C 305.496,99.5001 319.496,99.3334 333.5,99.5C 335.307,87.812 331.64,78.4787 322.5,71.5C 322.167,70.8333 321.833,70.1667 321.5,69.5 Z"/></g>
<g><path style="opacity:0.067" fill="#dff2f6" d="M 113.5,89.5 C 115.329,95.1567 114.496,100.49 111,105.5C 110.184,106.823 109.017,107.489 107.5,107.5C 108.843,104.652 110.509,101.985 112.5,99.5C 113.487,96.2317 113.82,92.8984 113.5,89.5 Z"/></g>
<g><path style="opacity:0.035" fill="#e1f5f9" d="M 371.5,97.5 C 366.469,95.7834 361.802,96.4501 357.5,99.5C 353.832,106.301 355.165,111.634 361.5,115.5C 358.112,115.812 355.612,114.479 354,111.5C 352.178,96.8024 358.011,92.1357 371.5,97.5 Z"/></g>
<g><path style="opacity:0.015" fill="#eaf8f9" d="M 372.5,97.5 C 374.963,97.7811 377.13,98.7811 379,100.5C 379.667,103.833 379.667,107.167 379,110.5C 378.329,111.252 377.496,111.586 376.5,111.5C 378.831,105.605 377.498,100.938 372.5,97.5 Z"/></g>
<g><path style="opacity:0.2" fill="#d1f0f5" d="M 138.5,97.5 C 139.79,98.0577 140.623,99.0577 141,100.5C 142.156,104.123 143.156,107.789 144,111.5C 144.671,112.252 145.504,112.586 146.5,112.5C 145.458,113.791 144.292,113.791 143,112.5C 140.725,107.733 139.225,102.733 138.5,97.5 Z"/></g>
<g><path style="opacity:0.024" fill="#e3f7fc" d="M 66.5,109.5 C 65.5041,109.414 64.6708,109.748 64,110.5C 62.0998,113.185 62.2664,115.519 64.5,117.5C 62.712,117.785 61.0453,117.452 59.5,116.5C 61.7675,112.78 63.4342,108.78 64.5,104.5C 65.562,106.022 66.2287,107.688 66.5,109.5 Z"/></g>
<g><path style="opacity:0.049" fill="#e9fbfc" d="M 343.5,99.5 C 343.337,104.547 343.671,109.547 344.5,114.5C 342.531,111.926 341.531,108.926 341.5,105.5C 341.361,103.117 342.028,101.117 343.5,99.5 Z"/></g>
<g><path style="opacity:0.361" fill="#bdebf6" d="M 89.5,107.5 C 95.492,108.774 101.492,108.774 107.5,107.5C 107.423,108.75 106.756,109.583 105.5,110C 100.833,112 96.1667,112 91.5,110C 90.244,109.583 89.5774,108.75 89.5,107.5 Z"/></g>
<g><path style="opacity:0.325" fill="#f0f6f7" d="M 448.5,115.5 C 447.211,112.21 444.877,109.877 441.5,108.5C 439.674,110.91 437.34,112.577 434.5,113.5C 437.689,110.664 440.022,107.331 441.5,103.5C 443.562,106.758 446.062,109.758 449,112.5C 449.74,113.749 449.573,114.749 448.5,115.5 Z"/></g>
<g><path style="opacity:0.04" fill="#e5fafd" d="M 131.5,107.5 C 129.853,110.795 128.186,114.128 126.5,117.5C 125.425,118.562 124.425,118.562 123.5,117.5C 125.921,114.588 127.588,111.255 128.5,107.5C 129.522,106.646 130.355,105.646 131,104.5C 131.483,105.448 131.649,106.448 131.5,107.5 Z"/></g>
<g><path style="opacity:0.082" fill="#d0f5fd" d="M 263.5,101.5 C 264.794,102.29 265.961,103.29 267,104.5C 268.808,107.438 270.308,110.438 271.5,113.5C 269.629,113.141 268.129,112.141 267,110.5C 265.729,107.516 264.562,104.516 263.5,101.5 Z"/></g>
<g><path style="opacity:0.173" fill="#e6f6fa" d="M 361.5,66.5 C 383.854,63.1988 393.521,73.0321 390.5,96C 389.735,105.435 389.401,114.601 389.5,123.5C 385.003,124.055 380.836,123.389 377,121.5C 375.989,122.337 374.822,122.67 373.5,122.5C 374.475,120.487 376.142,119.154 378.5,118.5C 379.429,119.689 379.762,121.022 379.5,122.5C 382.5,122.5 385.5,122.5 388.5,122.5C 388.667,107.496 388.5,92.4963 388,77.5C 386.167,74.3333 383.667,71.8333 380.5,70C 374.452,67.3253 368.119,66.1586 361.5,66.5 Z"/></g>
<g><path style="opacity:0.086" fill="#e2f7fc" d="M 327.5,119.5 C 328.431,117.967 329.098,116.3 329.5,114.5C 329.02,109.791 326.687,108.458 322.5,110.5C 323.014,108.132 324.18,106.132 326,104.5C 327.433,107.598 329.266,110.431 331.5,113C 332.887,116.715 331.554,118.882 327.5,119.5 Z"/></g>
<g><path style="opacity:0.006" fill="#f2f5f7" d="M 82.5,115.5 C 83.2674,116.172 83.9341,117.005 84.5,118C 94.2138,118.782 103.88,118.615 113.5,117.5C 113.389,118.117 113.056,118.617 112.5,119C 102.833,119.667 93.1667,119.667 83.5,119C 82.6634,117.989 82.33,116.822 82.5,115.5 Z"/></g>
<g><path style="opacity:0.169" fill="#cdf3fc" d="M 155.5,119.5 C 152.951,121.169 150.284,122.835 147.5,124.5C 150.729,133.656 151.229,142.989 149,152.5C 148.722,153.416 148.222,154.082 147.5,154.5C 147.69,143.143 147.356,131.81 146.5,120.5C 149.482,120.037 152.482,119.704 155.5,119.5 Z"/></g>
<g><path style="opacity:0.059" fill="#d3eef2" d="M 271.5,113.5 C 273.841,115.656 275.841,118.156 277.5,121C 277.043,121.414 276.709,121.914 276.5,122.5C 272.016,123.811 267.683,123.811 263.5,122.5C 267.555,122.824 271.555,122.491 275.5,121.5C 273.595,119.116 272.261,116.45 271.5,113.5 Z"/></g>
<g><path style="opacity:0.09" fill="#ebfbfb" d="M 301.5,123.5 C 306.833,123.5 312.167,123.5 317.5,123.5C 317.389,124.117 317.056,124.617 316.5,125C 311.833,125.667 307.167,125.667 302.5,125C 301.944,124.617 301.611,124.117 301.5,123.5 Z"/></g>
<g><path style="opacity:0.008" fill="#e9f1f5" d="M 373.5,122.5 C 368.351,125.436 362.684,126.269 356.5,125C 355.944,124.617 355.611,124.117 355.5,123.5C 361.536,123.64 367.536,123.307 373.5,122.5 Z"/></g>
<g><path style="opacity:0.094" fill="#d0f6fb" d="M 408.5,117.5 C 412.801,119.314 417.134,121.148 421.5,123C 426.489,123.499 431.489,123.666 436.5,123.5C 436.389,124.117 436.056,124.617 435.5,125C 427.373,126.377 419.706,125.211 412.5,121.5C 411.091,120.151 409.757,118.818 408.5,117.5 Z"/></g>
<g><path style="opacity:0.076" fill="#dcf8fd" d="M 458.5,104.5 C 459.819,109.037 460.653,113.703 461,118.5C 462.487,119.155 463.653,120.155 464.5,121.5C 470.006,123.817 475.673,124.151 481.5,122.5C 479.316,124.954 476.483,125.954 473,125.5C 463.938,125.808 458.938,121.475 458,112.5C 457.199,109.633 457.366,106.966 458.5,104.5 Z"/></g>
<g><path style="opacity:0.075" fill="#e4f4f7" d="M 139.5,139.5 C 138.551,135.343 137.884,131.01 137.5,126.5C 131.097,126.885 124.764,127.718 118.5,129C 115.635,132.692 112.635,136.192 109.5,139.5C 110.696,134.936 113.029,131.103 116.5,128C 123.755,126.617 131.089,125.784 138.5,125.5C 139.229,130.13 139.563,134.797 139.5,139.5 Z"/></g>
<g><path style="opacity:0.055" fill="#e0fafa" d="M 48.5,129.5 C 48.3195,138.528 48.6529,147.528 49.5,156.5C 47.0012,151.953 46.0012,146.953 46.5,141.5C 46.6667,138.167 46.8333,134.833 47,131.5C 47.2784,130.584 47.7784,129.918 48.5,129.5 Z"/></g>
<g><path style="opacity:0.235" fill="#f0f9fa" d="M 61.5,126.5 C 60.5041,126.414 59.6708,126.748 59,127.5C 58.0027,134.467 57.5027,141.467 57.5,148.5C 56.8826,148.389 56.3826,148.056 56,147.5C 55.0152,140.261 55.6818,133.261 58,126.5C 59.2917,125.209 60.4583,125.209 61.5,126.5 Z"/></g>
<g><path style="opacity:0.024" fill="#f8fcfc" d="M 57.5,149.5 C 59.0668,155.723 63.0668,158.39 69.5,157.5C 61.9523,160.384 57.9523,157.717 57.5,149.5 Z"/></g>
<g><path style="opacity:0.873" fill="#a8edfb" d="M 50.5,159.5 C 52.6709,161.802 55.3376,163.635 58.5,165C 66.2526,165.732 73.9193,165.232 81.5,163.5C 73.3851,168.812 64.7184,169.645 55.5,166C 53.2101,164.223 51.5434,162.056 50.5,159.5 Z"/></g>
</svg>
